<?xml version="1.0" encoding="utf-8"?>
<!-- Generator: Adobe Illustrator 22.1.0, SVG Export Plug-In . SVG Version: 6.00 Build 0)  -->
<svg version="1.1" id="Слой_1" xmlns="http://www.w3.org/2000/svg" xmlns:xlink="http://www.w3.org/1999/xlink" x="0px" y="0px"
	 viewBox="0 0 307 70" style="enable-background:new 0 0 307 70;" xml:space="preserve">
<style type="text/css">
	.st0{fill:url(#SVGID_1_);}
	.st1{fill:url(#SVGID_2_);}
	.st2{fill:url(#SVGID_3_);}
	.st3{fill:url(#SVGID_4_);}
	.st4{fill:url(#SVGID_5_);}
	.st5{fill:url(#SVGID_6_);}
	.st6{fill:url(#SVGID_7_);}
	.st7{fill:url(#SVGID_8_);}
	.st8{fill:url(#SVGID_9_);}
	.st9{fill:#00B453;}
	.st10{fill:url(#SVGID_10_);}
</style>
<g>
	<linearGradient id="SVGID_1_" gradientUnits="userSpaceOnUse" x1="3.3036" y1="35.3418" x2="48.4469" y2="35.3418">
		<stop  offset="0" style="stop-color:#00BF51"/>
		<stop  offset="1" style="stop-color:#00A651"/>
	</linearGradient>
	<path class="st0" d="M31,30.4c-12-2.5-15-4.9-15-8.7c0-5,3.7-8.2,13.6-8.2H30c6.8,0.1,12.4,2.1,16.3,6.3h0.4v-5.9
		c0-5.2-4.1-11.5-18.4-11.7c-0.2,0-0.3,0-0.5,0h-0.4C12.3,2.1,3.3,12.3,3.3,22.9c0,8.7,6.2,14.1,17,16.5c13.6,2.9,15.3,4.9,15.3,9.3
		c0,5-2.9,8.2-11.7,8.4c-0.2,0-0.5,0-0.7,0h-0.4c-7.7,0-13.5-3-17.8-6.8c0,0-0.1-0.1-0.1-0.1H4.7v5.7c0,7.6,6.6,12.6,19.6,12.6h0.4
		c15.3-0.1,23.8-8.4,23.8-21C48.4,38.9,42.7,32.9,31,30.4z"/>
	<linearGradient id="SVGID_2_" gradientUnits="userSpaceOnUse" x1="55.6605" y1="35.3418" x2="115.7035" y2="35.3418">
		<stop  offset="0" style="stop-color:#00BF51"/>
		<stop  offset="1" style="stop-color:#00A651"/>
	</linearGradient>
	<path class="st1" d="M86.6,2.1h-0.2c-19.5,0-30.7,14.2-30.7,34.2c0,19.2,13.1,32.2,29.3,32.2h0.2c19.4-0.1,30.5-14.8,30.5-34.2
		C115.7,14.1,102,2.2,86.6,2.1z M86.2,57.4c-11.7,0-17.3-7.6-17.3-23c0-13.1,6.8-20.9,16.3-20.9c0.1,0,0.1,0,0.2,0
		c10.7,0.1,17.1,7.7,17.1,22.7c0,14.1-6.3,21.2-16.1,21.3C86.3,57.4,86.3,57.4,86.2,57.4z"/>
	<linearGradient id="SVGID_3_" gradientUnits="userSpaceOnUse" x1="124.7902" y1="35.3418" x2="164.2229" y2="35.3418">
		<stop  offset="0" style="stop-color:#00BF51"/>
		<stop  offset="1" style="stop-color:#00A651"/>
	</linearGradient>
	<path class="st2" d="M135.5,3.3c-7.5,0-10.7,2-10.7,9.9v46.7c0,5.1,2.8,7.5,7.5,7.5h5.3V40.1h16.5c2.9,0,6.2-2.2,6.2-6.4v-3.8
		h-23.1V13.9h19.8c5.1,0,7.3-3.7,7.3-6.6v-4H135.5z"/>
	<linearGradient id="SVGID_4_" gradientUnits="userSpaceOnUse" x1="193.732" y1="35.9054" x2="246.3736" y2="35.9054">
		<stop  offset="0" style="stop-color:#00BF51"/>
		<stop  offset="1" style="stop-color:#00A651"/>
	</linearGradient>
	<path class="st3" d="M238.3,3.3h-4.9v36c0,11.3-3.7,17.3-12.7,17.3c-0.1,0-0.1,0-0.2,0c-9.9,0-14-5.8-14-17.8V15.1
		c0-8.9-3.9-11.8-8-11.8h-5v36.3c0,18.5,10,28.9,25.6,28.9h0.4c0.2,0,0.3,0,0.5,0c17.8-0.3,26.2-11.5,26.2-30.1V14.7
		C246.4,6.8,243.2,3.3,238.3,3.3z"/>
	<linearGradient id="SVGID_5_" gradientUnits="userSpaceOnUse" x1="253.9629" y1="35.3418" x2="301.4519" y2="35.3418">
		<stop  offset="0" style="stop-color:#00BF51"/>
		<stop  offset="1" style="stop-color:#00A651"/>
	</linearGradient>
	<path class="st4" d="M269.1,56.2c0.7-2.8,4.3-7.1,8.6-12l15.8-17.7c4.7-5.2,7.8-10.9,7.8-14.8c0-5.3-2.5-8.4-8.7-8.4h-29.1
		c-6.8,0-9.6,2.7-9.6,7.8v3.5h32.5c-0.8,2.6-3.8,6.4-6.9,9.8l-15.9,18c-5.3,6-9.6,11.5-9.6,17c0,5.2,3.5,8.1,8.1,8.1h32.1
		c4.7,0,7.3-3.4,7.3-6.6v-4.6H269.1z"/>
	<linearGradient id="SVGID_6_" gradientUnits="userSpaceOnUse" x1="3.6794" y1="35.3418" x2="48.8283" y2="35.3418">
		<stop  offset="0" style="stop-color:#00BF51"/>
		<stop  offset="1" style="stop-color:#00A651"/>
	</linearGradient>
	<path class="st5" d="M31.4,30.4c-12-2.5-15-4.9-15-8.7c0-4.9,3.6-8.2,13.2-8.2H30c7,0,12.7,2.1,16.7,6.3v0H47v-5.9
		c0-5.3-4.2-11.6-18.8-11.7c-0.2,0-0.3,0-0.5,0h-0.2C12.6,2.2,3.7,12.3,3.7,22.9c0,8.7,6.2,14.1,17,16.5C34.3,42.3,36,44.3,36,48.7
		c0,5-2.9,8.3-12,8.4c-0.2,0-0.5,0-0.7,0h-0.2c-7.7,0-13.4-3.1-17.7-6.9H5.1v5.7c0,7.6,6.6,12.6,19.4,12.6h0.1
		c15.5,0,24.2-8.3,24.2-21C48.8,38.9,43.1,32.9,31.4,30.4z"/>
	<linearGradient id="SVGID_7_" gradientUnits="userSpaceOnUse" x1="56.0419" y1="35.3418" x2="116.0849" y2="35.3418">
		<stop  offset="0" style="stop-color:#00BF51"/>
		<stop  offset="1" style="stop-color:#00A651"/>
	</linearGradient>
	<path class="st6" d="M86.8,2.1h-0.2C67.2,2.2,56,16.4,56,36.3c0,19.1,13,32.1,29.1,32.2h0.2c19.6,0,30.7-14.7,30.7-34.2
		C116.1,14,102.3,2.1,86.8,2.1z M85.5,13.5c10.9,0,17.3,7.6,17.3,22.7c0,14.1-6.4,21.3-16.3,21.3c-0.1,0-0.1,0-0.2,0
		c-11.6-0.1-17.1-7.7-17.1-23c0-13,6.8-20.8,16.1-20.9C85.4,13.5,85.5,13.5,85.5,13.5z"/>
	<linearGradient id="SVGID_8_" gradientUnits="userSpaceOnUse" x1="125.1717" y1="35.3418" x2="164.6044" y2="35.3418">
		<stop  offset="0" style="stop-color:#00BF51"/>
		<stop  offset="1" style="stop-color:#00A651"/>
	</linearGradient>
	<path class="st7" d="M135.8,3.3c-7.5,0-10.7,2-10.7,9.9v46.7c0,5.1,2.8,7.5,7.5,7.5h5.3V40.1h16.5c2.9,0,6.2-2.2,6.2-6.4v-3.8
		h-23.1V13.9h19.8c5.1,0,7.3-3.7,7.3-6.6v-4H135.8z"/>
	<linearGradient id="SVGID_9_" gradientUnits="userSpaceOnUse" x1="194.1135" y1="35.9054" x2="246.755" y2="35.9054">
		<stop  offset="0" style="stop-color:#00BF51"/>
		<stop  offset="1" style="stop-color:#00A651"/>
	</linearGradient>
	<path class="st8" d="M238.7,3.3h-4.9v36c0,11.3-3.7,17.3-12.8,17.3c-0.1,0-0.1,0-0.2,0C211,56.5,207,50.7,207,38.8V15.1
		c0-8.9-3.9-11.8-8-11.8h-5v36.3c0,18.5,9.9,28.9,25.4,28.9h0.2c0.2,0,0.3,0,0.5,0c18-0.2,26.6-11.4,26.6-30.1V14.7
		C246.8,6.8,243.6,3.3,238.7,3.3z"/>
	<path class="st9" d="M269.5,56.2c0.7-2.8,4.3-7.1,8.6-12L294,26.5c4.7-5.2,7.8-10.9,7.8-14.8c0-5.3-2.5-8.4-8.7-8.4h-29.1
		c-6.8,0-9.6,2.7-9.6,7.8v3.5h32.5c-0.8,2.6-3.8,6.4-6.9,9.8l-15.9,18c-5.3,6-9.6,11.5-9.6,17c0,5.2,3.5,8.1,8.1,8.1h32.1
		c4.7,0,7.3-3.4,7.3-6.6v-4.6H269.5z"/>
	<linearGradient id="SVGID_10_" gradientUnits="userSpaceOnUse" x1="169.8626" y1="59.2367" x2="182.5925" y2="59.2367">
		<stop  offset="0" style="stop-color:#00BF51"/>
		<stop  offset="1" style="stop-color:#00A651"/>
	</linearGradient>
	<path class="st10" d="M176.2,68.5L176.2,68.5c-4.7,0-7.8-4.4-5.7-8.2l5.7-10.2l0,0l5.7,10.1C184,64,181,68.5,176.2,68.5z"/>
</g>
</svg>
