<?xml version="1.0" encoding="utf-8"?>
<!-- Generator: Adobe Illustrator 22.1.0, SVG Export Plug-In . SVG Version: 6.00 Build 0)  -->
<svg version="1.1" id="Слой_1" xmlns="http://www.w3.org/2000/svg" xmlns:xlink="http://www.w3.org/1999/xlink" x="0px" y="0px"
	 viewBox="0 0 235.8 70" style="enable-background:new 0 0 235.8 70;" xml:space="preserve">
<style type="text/css">
	.st0{fill:#39B54A;}
	.st1{fill:url(#SVGID_1_);}
	.st2{fill:url(#SVGID_2_);}
	.st3{fill:url(#SVGID_3_);}
	.st4{fill:url(#SVGID_4_);}
	.st5{fill:url(#SVGID_5_);}
	.st6{fill:url(#SVGID_6_);}
	.st7{fill:url(#SVGID_7_);}
	.st8{fill:url(#SVGID_8_);}
	.st9{fill:url(#SVGID_9_);}
	.st10{fill:#00B453;}
	.st11{fill:url(#SVGID_10_);}
</style>
<g>
	<path class="st0" d="M148.1,66.8c-0.5-0.3-0.9-0.7-1.1-1.2c0,0,0-0.1,0-0.2c0-0.1,0-0.2,0.1-0.3s0.2-0.1,0.3-0.1
		c0.1,0,0.2,0,0.2,0.1c0.1,0,0.1,0.1,0.2,0.2c0.2,0.3,0.4,0.6,0.8,0.8c0.4,0.2,0.8,0.3,1.3,0.3c0.6,0,1-0.1,1.4-0.4
		c0.4-0.3,0.5-0.7,0.5-1.2c0-0.4-0.2-0.8-0.5-1.1s-0.8-0.5-1.5-0.6c-0.8-0.1-1.5-0.4-1.9-0.8s-0.7-0.9-0.7-1.5
		c0-0.4,0.1-0.8,0.3-1.1c0.2-0.3,0.5-0.6,1-0.7c0.4-0.2,0.9-0.3,1.4-0.3c0.6,0,1.1,0.1,1.5,0.4c0.4,0.2,0.8,0.6,1,1
		c0,0.1,0.1,0.2,0.1,0.3c0,0.1-0.1,0.2-0.2,0.3c-0.1,0-0.1,0-0.2,0c-0.1,0-0.2,0-0.2-0.1s-0.1-0.1-0.2-0.2c-0.4-0.6-1-0.9-1.8-0.9
		c-0.6,0-1,0.1-1.4,0.4c-0.3,0.2-0.5,0.6-0.5,1c0,0.8,0.7,1.3,2,1.5c0.9,0.1,1.5,0.4,2,0.8s0.6,1,0.6,1.6c0,0.5-0.1,0.9-0.4,1.3
		s-0.6,0.6-1,0.8c-0.4,0.2-0.9,0.3-1.4,0.3C149.2,67.2,148.6,67.1,148.1,66.8z"/>
	<path class="st0" d="M155.4,66.8c-0.5-0.3-0.8-0.6-1.1-1.1c-0.3-0.5-0.4-1-0.4-1.5s0.1-1.1,0.4-1.5c0.3-0.5,0.6-0.8,1.1-1.1
		c0.5-0.3,1-0.4,1.5-0.4s1.1,0.1,1.5,0.4c0.4,0.3,0.8,0.6,1.1,1.1c0.3,0.5,0.4,1,0.4,1.5s-0.1,1.1-0.4,1.5c-0.3,0.5-0.6,0.8-1.1,1.1
		c-0.5,0.3-1,0.4-1.5,0.4S155.8,67,155.4,66.8z M158,66.1c0.3-0.2,0.6-0.5,0.8-0.8s0.3-0.7,0.3-1.1c0-0.4-0.1-0.8-0.3-1.1
		s-0.4-0.6-0.8-0.8s-0.7-0.3-1.1-0.3c-0.4,0-0.8,0.1-1.1,0.3c-0.3,0.2-0.6,0.5-0.8,0.8c-0.2,0.3-0.3,0.7-0.3,1.1
		c0,0.4,0.1,0.8,0.3,1.1c0.2,0.3,0.4,0.6,0.8,0.8c0.3,0.2,0.7,0.3,1.1,0.3C157.3,66.4,157.7,66.3,158,66.1z"/>
	<path class="st0" d="M162.9,60c-0.2,0.3-0.4,0.7-0.4,1.2v0.2h1.3c0.1,0,0.2,0,0.3,0.1c0.1,0.1,0.1,0.2,0.1,0.3c0,0.1,0,0.2-0.1,0.3
		s-0.2,0.1-0.3,0.1h-1.3v4.5c0,0.1,0,0.2-0.1,0.3c-0.1,0.1-0.2,0.1-0.3,0.1c-0.1,0-0.2,0-0.3-0.1c-0.1-0.1-0.1-0.2-0.1-0.3v-4.5
		h-0.7c-0.1,0-0.2,0-0.3-0.1s-0.1-0.2-0.1-0.3c0-0.1,0-0.2,0.1-0.3c0.1-0.1,0.2-0.1,0.3-0.1h0.7v-0.2c0-0.8,0.2-1.4,0.6-1.8
		c0.4-0.5,0.9-0.7,1.6-0.7c0.1,0,0.2,0,0.3,0.1s0.1,0.2,0.1,0.3s0,0.2-0.1,0.3c-0.1,0.1-0.2,0.1-0.3,0.1
		C163.5,59.5,163.2,59.7,162.9,60z"/>
	<path class="st0" d="M173.2,61.6c0,0.1,0,0.1,0,0.2l-3.4,7.6c-0.1,0.2-0.2,0.2-0.3,0.2c-0.1,0-0.1,0-0.2,0
		c-0.2-0.1-0.2-0.2-0.2-0.3c0-0.1,0-0.1,0-0.2l1.1-2.3v0l-2.4-4.9c0-0.1,0-0.1,0-0.2c0-0.1,0.1-0.3,0.2-0.3c0.1,0,0.1,0,0.2,0
		c0.1,0,0.3,0.1,0.3,0.2l2.1,4.4l2-4.4c0.1-0.2,0.2-0.2,0.3-0.2c0.1,0,0.1,0,0.2,0C173.2,61.4,173.2,61.5,173.2,61.6z"/>
	<path class="st0" d="M178.2,61.6c0.5,0.3,0.8,0.6,1.1,1.1s0.4,1,0.4,1.5v2.5c0,0.1,0,0.2-0.1,0.3c-0.1,0.1-0.2,0.1-0.3,0.1
		c-0.1,0-0.2,0-0.3-0.1c-0.1-0.1-0.1-0.2-0.1-0.3v-0.6c-0.2,0.3-0.6,0.6-0.9,0.8s-0.8,0.3-1.3,0.3c-0.5,0-1-0.1-1.5-0.4
		s-0.8-0.6-1-1.1c-0.3-0.5-0.4-1-0.4-1.5s0.1-1.1,0.4-1.5s0.6-0.8,1.1-1.1c0.5-0.3,1-0.4,1.5-0.4S177.7,61.4,178.2,61.6z
		 M177.7,66.1c0.3-0.2,0.6-0.5,0.8-0.8c0.2-0.3,0.3-0.7,0.3-1.1c0-0.4-0.1-0.8-0.3-1.1c-0.2-0.3-0.4-0.6-0.8-0.8s-0.7-0.3-1.1-0.3
		s-0.8,0.1-1.1,0.3c-0.3,0.2-0.6,0.5-0.8,0.8c-0.2,0.3-0.3,0.7-0.3,1.1c0,0.4,0.1,0.8,0.3,1.1c0.2,0.3,0.4,0.6,0.8,0.8
		c0.3,0.2,0.7,0.3,1.1,0.3S177.4,66.3,177.7,66.1z"/>
	<path class="st0" d="M185.3,61.5c0.4,0.2,0.7,0.5,0.9,0.9c0.2,0.4,0.3,0.9,0.3,1.5v2.8c0,0.1,0,0.2-0.1,0.3s-0.2,0.1-0.3,0.1
		c-0.1,0-0.2,0-0.3-0.1c-0.1-0.1-0.1-0.2-0.1-0.3v-2.8c0-0.6-0.2-1.1-0.5-1.4c-0.4-0.3-0.8-0.5-1.4-0.5c-0.3,0-0.7,0.1-0.9,0.2
		c-0.3,0.1-0.5,0.3-0.7,0.6s-0.2,0.5-0.2,0.8v3.1c0,0.1,0,0.2-0.1,0.3c-0.1,0.1-0.2,0.1-0.3,0.1c-0.1,0-0.2,0-0.3-0.1
		c-0.1-0.1-0.1-0.2-0.1-0.3v-5c0-0.1,0-0.2,0.1-0.3s0.2-0.1,0.3-0.1c0.1,0,0.2,0,0.3,0.1s0.1,0.2,0.1,0.3v0.4
		c0.2-0.3,0.5-0.5,0.9-0.6c0.3-0.1,0.7-0.2,1.1-0.2C184.5,61.2,184.9,61.3,185.3,61.5z"/>
	<path class="st0" d="M192.6,61.6c0.4,0.3,0.8,0.6,1.1,1.1c0.3,0.5,0.4,1,0.4,1.5v2.2c0,0.6-0.1,1.1-0.4,1.5c-0.3,0.5-0.6,0.8-1,1.1
		c-0.4,0.3-1,0.4-1.5,0.4c-0.5,0-1-0.1-1.5-0.3c-0.4-0.2-0.8-0.5-1.1-0.9c-0.1-0.1-0.1-0.2-0.1-0.2c0-0.1,0-0.2,0.1-0.3
		c0.1,0,0.1-0.1,0.2-0.1c0.1,0,0.1,0,0.2,0c0.1,0,0.1,0.1,0.1,0.1c0.2,0.3,0.5,0.5,0.8,0.6c0.3,0.1,0.7,0.2,1.1,0.2
		c0.4,0,0.8-0.1,1.1-0.3c0.3-0.2,0.6-0.5,0.8-0.8c0.2-0.4,0.3-0.8,0.3-1.2v-0.5c-0.2,0.4-0.5,0.7-0.9,1c-0.4,0.2-0.8,0.3-1.3,0.3
		c-0.6,0-1-0.1-1.5-0.4c-0.4-0.3-0.8-0.6-1-1.1c-0.2-0.5-0.4-1-0.4-1.5c0-0.6,0.1-1.1,0.4-1.5c0.3-0.5,0.6-0.8,1.1-1.1
		c0.5-0.3,1-0.4,1.5-0.4C191.6,61.2,192.1,61.4,192.6,61.6z M192.2,66.1c0.3-0.2,0.6-0.5,0.8-0.8s0.3-0.7,0.3-1.1s-0.1-0.8-0.3-1.1
		s-0.4-0.6-0.8-0.8s-0.7-0.3-1.1-0.3c-0.4,0-0.8,0.1-1.1,0.3s-0.6,0.5-0.8,0.8s-0.3,0.7-0.3,1.1s0.1,0.8,0.3,1.1s0.4,0.6,0.8,0.8
		c0.3,0.2,0.7,0.3,1.1,0.3C191.5,66.4,191.8,66.3,192.2,66.1z"/>
	<path class="st0" d="M195.8,60c-0.1-0.1-0.2-0.3-0.2-0.4c0-0.2,0.1-0.3,0.2-0.4c0.1-0.1,0.3-0.2,0.4-0.2c0.2,0,0.3,0.1,0.4,0.2
		c0.1,0.1,0.2,0.2,0.2,0.4c0,0.2-0.1,0.3-0.2,0.4c-0.1,0.1-0.3,0.2-0.4,0.2S195.9,60.1,195.8,60z M195.9,67
		c-0.1-0.1-0.1-0.2-0.1-0.3v-5c0-0.1,0-0.2,0.1-0.3c0.1-0.1,0.2-0.1,0.3-0.1c0.1,0,0.2,0,0.3,0.1s0.1,0.2,0.1,0.3v5
		c0,0.1,0,0.2-0.1,0.3s-0.2,0.1-0.3,0.1C196.1,67.1,196,67.1,195.9,67z"/>
	<path class="st0" d="M198.9,66.6c-0.3-0.3-0.4-0.8-0.4-1.3v-6.1c0-0.1,0-0.2,0.1-0.3c0.1-0.1,0.2-0.1,0.3-0.1c0.1,0,0.2,0,0.3,0.1
		c0.1,0.1,0.1,0.2,0.1,0.3v6.1c0,0.3,0.1,0.6,0.2,0.7s0.3,0.3,0.5,0.3h0.3c0.1,0,0.2,0,0.3,0.1c0.1,0.1,0.1,0.2,0.1,0.3
		c0,0.1,0,0.2-0.1,0.3c-0.1,0.1-0.2,0.1-0.3,0.1h-0.1C199.5,67.1,199.1,66.9,198.9,66.6z"/>
	<path class="st0" d="M201.8,60c-0.1-0.1-0.2-0.3-0.2-0.4c0-0.2,0.1-0.3,0.2-0.4c0.1-0.1,0.3-0.2,0.4-0.2c0.2,0,0.3,0.1,0.4,0.2
		c0.1,0.1,0.2,0.2,0.2,0.4c0,0.2-0.1,0.3-0.2,0.4c-0.1,0.1-0.3,0.2-0.4,0.2S202,60.1,201.8,60z M202,67c-0.1-0.1-0.1-0.2-0.1-0.3v-5
		c0-0.1,0-0.2,0.1-0.3c0.1-0.1,0.2-0.1,0.3-0.1c0.1,0,0.2,0,0.3,0.1s0.1,0.2,0.1,0.3v5c0,0.1,0,0.2-0.1,0.3s-0.2,0.1-0.3,0.1
		C202.1,67.1,202,67.1,202,67z"/>
	<path class="st0" d="M209.2,66.8c0,0.1,0,0.2-0.1,0.3c-0.1,0.1-0.2,0.1-0.3,0.1c-0.1,0-0.2,0-0.3-0.1l-2.2-2.7l-0.8,0.7v1.7
		c0,0.1,0,0.2-0.1,0.3c-0.1,0.1-0.2,0.1-0.3,0.1c-0.1,0-0.2,0-0.3-0.1c-0.1-0.1-0.1-0.2-0.1-0.3v-7.5c0-0.1,0-0.2,0.1-0.3
		c0.1-0.1,0.2-0.1,0.3-0.1c0.1,0,0.2,0,0.3,0.1c0.1,0.1,0.1,0.2,0.1,0.3V64l3-2.7c0.1-0.1,0.2-0.1,0.3-0.1c0.1,0,0.2,0,0.3,0.1
		c0.1,0.1,0.1,0.2,0.1,0.3c0,0.1,0,0.2-0.1,0.3l-2.1,1.9l2.2,2.7C209.2,66.6,209.2,66.7,209.2,66.8z"/>
	<path class="st0" d="M211,66.6c-0.3-0.3-0.4-0.8-0.4-1.3v-6.1c0-0.1,0-0.2,0.1-0.3c0.1-0.1,0.2-0.1,0.3-0.1c0.1,0,0.2,0,0.3,0.1
		c0.1,0.1,0.1,0.2,0.1,0.3v6.1c0,0.3,0.1,0.6,0.2,0.7s0.3,0.3,0.5,0.3h0.3c0.1,0,0.2,0,0.3,0.1c0.1,0.1,0.1,0.2,0.1,0.3
		c0,0.1,0,0.2-0.1,0.3c-0.1,0.1-0.2,0.1-0.3,0.1h-0.1C211.7,67.1,211.3,66.9,211,66.6z"/>
	<path class="st0" d="M217.8,61.6c0.5,0.3,0.8,0.6,1.1,1.1s0.4,1,0.4,1.5v2.5c0,0.1,0,0.2-0.1,0.3c-0.1,0.1-0.2,0.1-0.3,0.1
		c-0.1,0-0.2,0-0.3-0.1c-0.1-0.1-0.1-0.2-0.1-0.3v-0.6c-0.2,0.3-0.6,0.6-0.9,0.8s-0.8,0.3-1.3,0.3c-0.5,0-1-0.1-1.5-0.4
		s-0.8-0.6-1-1.1c-0.3-0.5-0.4-1-0.4-1.5s0.1-1.1,0.4-1.5s0.6-0.8,1.1-1.1c0.5-0.3,1-0.4,1.5-0.4S217.4,61.4,217.8,61.6z
		 M217.4,66.1c0.3-0.2,0.6-0.5,0.8-0.8c0.2-0.3,0.3-0.7,0.3-1.1c0-0.4-0.1-0.8-0.3-1.1c-0.2-0.3-0.4-0.6-0.8-0.8s-0.7-0.3-1.1-0.3
		s-0.8,0.1-1.1,0.3c-0.3,0.2-0.6,0.5-0.8,0.8c-0.2,0.3-0.3,0.7-0.3,1.1c0,0.4,0.1,0.8,0.3,1.1c0.2,0.3,0.4,0.6,0.8,0.8
		c0.3,0.2,0.7,0.3,1.1,0.3S217.1,66.3,217.4,66.1z"/>
	<path class="st0" d="M224.2,61.3c0.2,0.1,0.3,0.2,0.3,0.3c0,0,0,0.1,0,0.1c0,0.1-0.1,0.2-0.1,0.2c-0.1,0-0.1,0.1-0.3,0.1
		c-0.1,0-0.2,0-0.3,0c-0.1,0-0.1,0-0.3,0c-0.5,0-1,0.1-1.3,0.4c-0.3,0.3-0.5,0.7-0.5,1.1v3.2c0,0.1,0,0.2-0.1,0.3
		c-0.1,0.1-0.2,0.1-0.3,0.1c-0.1,0-0.2,0-0.3-0.1c-0.1-0.1-0.1-0.2-0.1-0.3v-5c0-0.1,0-0.2,0.1-0.3c0.1-0.1,0.2-0.1,0.3-0.1
		c0.1,0,0.2,0,0.3,0.1c0.1,0.1,0.1,0.2,0.1,0.3v0.5c0.2-0.3,0.5-0.5,0.8-0.7c0.3-0.2,0.7-0.2,1-0.2C223.8,61.2,224,61.3,224.2,61.3z
		"/>
</g>
<linearGradient id="SVGID_1_" gradientUnits="userSpaceOnUse" x1="8.8695" y1="32.3212" x2="41.6609" y2="32.3212">
	<stop  offset="0" style="stop-color:#00BF51"/>
	<stop  offset="1" style="stop-color:#00A651"/>
</linearGradient>
<path class="st1" d="M29,28.8c-8.7-1.8-10.9-3.5-10.9-6.3c0-3.6,2.7-6,9.9-6h0.3c5,0.1,9,1.6,11.8,4.6h0.3v-4.3
	c0-3.8-3-8.3-13.4-8.5c-0.1,0-0.2,0-0.4,0h-0.3c-11,0-17.5,7.3-17.5,15.1c0,6.3,4.5,10.3,12.4,12c9.9,2.1,11.1,3.5,11.1,6.7
	c0,3.6-2.1,5.9-8.5,6.1c-0.2,0-0.3,0-0.5,0h-0.3c-5.6,0-9.8-2.2-12.9-5c0,0,0,0-0.1-0.1H9.9v4.2c0,5.5,4.8,9.2,14.2,9.2h0.3
	c11.1-0.1,17.3-6.1,17.3-15.2C41.7,34.9,37.5,30.5,29,28.8z"/>
<linearGradient id="SVGID_2_" gradientUnits="userSpaceOnUse" x1="46.9007" y1="32.3212" x2="90.5149" y2="32.3212">
	<stop  offset="0" style="stop-color:#00BF51"/>
	<stop  offset="1" style="stop-color:#00A651"/>
</linearGradient>
<path class="st2" d="M69.3,8.2h-0.1C55.1,8.2,46.9,18.5,46.9,33c0,13.9,9.5,23.4,21.3,23.4h0.1c14.1-0.1,22.2-10.7,22.2-24.8
	C90.5,16.9,80.6,8.3,69.3,8.2z M69.1,48.3c-8.5,0-12.6-5.5-12.6-16.7c0-9.5,5-15.2,11.8-15.2c0,0,0.1,0,0.1,0
	c7.8,0.1,12.4,5.6,12.4,16.5c0,10.2-4.6,15.4-11.7,15.4C69.2,48.3,69.1,48.3,69.1,48.3z"/>
<linearGradient id="SVGID_3_" gradientUnits="userSpaceOnUse" x1="97.1154" y1="32.3212" x2="125.7587" y2="32.3212">
	<stop  offset="0" style="stop-color:#00BF51"/>
	<stop  offset="1" style="stop-color:#00A651"/>
</linearGradient>
<path class="st3" d="M104.9,9c-5.4,0-7.8,1.4-7.8,7.2v34c0,3.7,2,5.4,5.4,5.4h3.9V35.8h12c2.1,0,4.5-1.6,4.5-4.6v-2.8h-16.8V16.8
	h14.4c3.7,0,5.3-2.7,5.3-4.8V9H104.9z"/>
<linearGradient id="SVGID_4_" gradientUnits="userSpaceOnUse" x1="147.1936" y1="32.7306" x2="185.4315" y2="32.7306">
	<stop  offset="0" style="stop-color:#00BF51"/>
	<stop  offset="1" style="stop-color:#00A651"/>
</linearGradient>
<path class="st4" d="M179.6,9H176v26.1c0,8.2-2.7,12.5-9.2,12.6c0,0-0.1,0-0.1,0c-7.2,0-10.1-4.2-10.1-12.9V17.6
	c0-6.5-2.9-8.6-5.8-8.6h-3.6v26.4c0,13.5,7.3,21,18.6,21h0.3c0.1,0,0.2,0,0.3,0c12.9-0.3,19-8.4,19-21.8V17.3
	C185.4,11.6,183.1,9,179.6,9z"/>
<linearGradient id="SVGID_5_" gradientUnits="userSpaceOnUse" x1="190.9443" y1="32.3212" x2="225.4395" y2="32.3212">
	<stop  offset="0" style="stop-color:#00BF51"/>
	<stop  offset="1" style="stop-color:#00A651"/>
</linearGradient>
<path class="st5" d="M202,47.5c0.5-2,3.1-5.2,6.3-8.7l11.5-12.9c3.4-3.8,5.6-7.9,5.6-10.8c0-3.9-1.8-6.1-6.3-6.1h-21.2
	c-5,0-6.9,2-6.9,5.6v2.5h23.6c-0.6,1.9-2.8,4.6-5,7.1L198,37.4c-3.9,4.4-7,8.4-7,12.4c0,3.7,2.5,5.9,5.9,5.9h23.3
	c3.4,0,5.3-2.4,5.3-4.8v-3.3H202z"/>
<linearGradient id="SVGID_6_" gradientUnits="userSpaceOnUse" x1="9.1425" y1="32.3212" x2="41.9379" y2="32.3212">
	<stop  offset="0" style="stop-color:#00BF51"/>
	<stop  offset="1" style="stop-color:#00A651"/>
</linearGradient>
<path class="st6" d="M29.3,28.8c-8.7-1.8-10.9-3.5-10.9-6.3c0-3.6,2.6-5.9,9.6-6h0.3c5.1,0,9.3,1.5,12.1,4.6v0h0.3v-4.3
	c0-3.8-3.1-8.4-13.7-8.5c-0.1,0-0.2,0-0.4,0h-0.1C15.6,8.3,9.1,15.6,9.1,23.3c0,6.3,4.5,10.3,12.4,12c9.9,2.1,11.1,3.5,11.1,6.7
	c0,3.7-2.1,6-8.7,6.1c-0.2,0-0.3,0-0.5,0h-0.1c-5.6,0-9.8-2.3-12.9-5h-0.2v4.2c0,5.5,4.8,9.2,14.1,9.2h0.1
	c11.3,0,17.6-6.1,17.6-15.2C41.9,34.9,37.8,30.5,29.3,28.8z"/>
<linearGradient id="SVGID_7_" gradientUnits="userSpaceOnUse" x1="47.1778" y1="32.3212" x2="90.792" y2="32.3212">
	<stop  offset="0" style="stop-color:#00BF51"/>
	<stop  offset="1" style="stop-color:#00A651"/>
</linearGradient>
<path class="st7" d="M69.5,8.2h-0.2C55.3,8.3,47.2,18.6,47.2,33c0,13.9,9.5,23.3,21.2,23.4h0.1c14.2,0,22.3-10.7,22.3-24.8
	C90.8,16.8,80.8,8.2,69.5,8.2z M68.6,16.4c7.9,0,12.6,5.5,12.6,16.5c0,10.3-4.6,15.4-11.8,15.4c0,0-0.1,0-0.1,0
	c-8.4-0.1-12.4-5.6-12.4-16.7c0-9.5,4.9-15.1,11.7-15.2C68.5,16.4,68.6,16.4,68.6,16.4z"/>
<linearGradient id="SVGID_8_" gradientUnits="userSpaceOnUse" x1="97.3925" y1="32.3212" x2="126.0358" y2="32.3212">
	<stop  offset="0" style="stop-color:#00BF51"/>
	<stop  offset="1" style="stop-color:#00A651"/>
</linearGradient>
<path class="st8" d="M105.1,9c-5.4,0-7.8,1.4-7.8,7.2v34c0,3.7,2,5.4,5.4,5.4h3.9V35.8h12c2.1,0,4.5-1.6,4.5-4.6v-2.8h-16.8V16.8
	h14.4c3.7,0,5.3-2.7,5.3-4.8V9H105.1z"/>
<linearGradient id="SVGID_9_" gradientUnits="userSpaceOnUse" x1="147.4707" y1="32.7306" x2="185.7086" y2="32.7306">
	<stop  offset="0" style="stop-color:#00BF51"/>
	<stop  offset="1" style="stop-color:#00A651"/>
</linearGradient>
<path class="st9" d="M179.9,9h-3.5v26.1c0,8.2-2.7,12.6-9.3,12.6c0,0-0.1,0-0.1,0c-7.1,0-10-4.3-10-12.9V17.6c0-6.5-2.9-8.6-5.8-8.6
	h-3.6v26.4c0,13.4,7.2,21,18.4,21h0.1c0.1,0,0.2,0,0.3,0c13.1-0.1,19.3-8.3,19.3-21.8V17.3C185.7,11.6,183.4,9,179.9,9z"/>
<path class="st10" d="M202.2,47.5c0.5-2,3.1-5.2,6.3-8.7L220,25.9c3.4-3.8,5.6-7.9,5.6-10.8c0-3.9-1.8-6.1-6.3-6.1h-21.2
	c-5,0-6.9,2-6.9,5.6v2.5h23.6c-0.6,1.9-2.8,4.6-5,7.1l-11.6,13.1c-3.9,4.4-7,8.4-7,12.4c0,3.7,2.5,5.9,5.8,5.9h23.3
	c3.4,0,5.3-2.4,5.3-4.8v-3.3H202.2z"/>
<linearGradient id="SVGID_10_" gradientUnits="userSpaceOnUse" x1="129.8552" y1="49.678" x2="139.102" y2="49.678">
	<stop  offset="0" style="stop-color:#00BF51"/>
	<stop  offset="1" style="stop-color:#00A651"/>
</linearGradient>
<path class="st11" d="M134.5,56.4L134.5,56.4c-3.4,0-5.6-3.2-4.2-6l4.1-7.4l0,0l4.2,7.3C140.1,53.1,137.9,56.4,134.5,56.4z"/>
</svg>
