<?xml version="1.0" encoding="UTF-8"?>
<!DOCTYPE svg PUBLIC "-//W3C//DTD SVG 1.1//EN" "http://www.w3.org/Graphics/SVG/1.1/DTD/svg11.dtd">
<!-- Creator: CorelDRAW 2019 (64-Bit) -->
<svg xmlns="http://www.w3.org/2000/svg" xml:space="preserve" width="18.4913mm" height="5.0801mm" version="1.1" style="shape-rendering:geometricPrecision; text-rendering:geometricPrecision; image-rendering:optimizeQuality; fill-rule:evenodd; clip-rule:evenodd"
viewBox="0 0 1849.12 508.01"
 xmlns:xlink="http://www.w3.org/1999/xlink"
 xmlns:xodm="http://www.corel.com/coreldraw/odm/2003">
 <defs>
  <style type="text/css">
   <![CDATA[
    .fil0 {fill:#6fd08d}
   ]]>
  </style>
 </defs>
 <g id="Слой_x0020_1">
  <metadata id="CorelCorpID_0Corel-Layer"/>
  <g id="_2263439307440">
   <path class="fil0" d="M28.81 391.16c92.08,171.36 292.08,132.53 309.01,6.48 9.93,-73.92 -81.95,-100.59 -148.26,-152.97 -66.31,-52.38 -124.6,-164.38 51.62,-237.7 -455.36,70.26 -168.07,611.23 65.2,390.27 -50.25,109.16 -173.92,104.44 -277.57,-6.08z"/>
   <path class="fil0" d="M322.19 508.01c35.41,-15.87 118.63,-102.31 72.5,-189.68 -42.99,-81.42 -233.64,-104.15 -217.27,-208.43 16.38,-104.28 158.35,-125.53 242.57,-34.07 -112.96,-63.5 -238.12,-24.44 -195.14,76.82 6.6,-106.5 179.25,-79.87 237.56,-0.31 68.04,92.84 56.73,304.9 -140.22,355.67z"/>
   <path class="fil0" d="M699.23 158.55c95.94,0 173.71,77.77 173.71,173.71 0,95.94 -77.77,173.71 -173.71,173.71 -95.93,0 -173.7,-77.77 -173.7,-173.71 0,-95.94 77.77,-173.71 173.7,-173.71zm0 81.5c50.93,0 92.21,41.28 92.21,92.21 0,50.92 -41.28,92.21 -92.21,92.21 -50.92,0 -92.2,-41.29 -92.2,-92.21 0,-50.93 41.28,-92.21 92.2,-92.21z"/>
   <path class="fil0" d="M993.74 239.93l0 265.69 -89.8 0 1.6 -363.02c-2.82,-83.94 68.98,-153.69 184.13,-141.12l0 70.79c-71.74,-1.4 -100.8,19.57 -96.5,96.87l62.41 0 0 70.79 -61.84 0z"/>
   <circle class="fil0" cx="1120.79" cy="451.56" r="55.14"/>
   <path class="fil0" d="M1527.74 168.61c-0.1,2.4 0.05,175.22 -0.01,197.11 -0.54,197.95 -316.13,177.07 -315.27,5l-0.94 -202.11 82.45 0 0.45 194.5c-0.41,83.51 152.74,93.63 153,-2.42 0.02,-10.62 -0.76,-190.92 -0.72,-192.08l81.04 0z"/>
   <path class="fil0" d="M1813.8 168.08l-237.51 0.47 0 70.32 150.88 0 -161.6 197.46c-21.92,26.79 -1.32,70.33 36.33,70.33l235.18 0 0 -81.04 -152.75 0 152.75 -179.3c24.42,-28.66 9.19,-78.51 -23.28,-78.24z"/>
  </g>
 </g>
</svg>
