<svg xmlns="http://www.w3.org/2000/svg" width="22" height="72" fill="none" viewBox="0 0 22 72">
    <g clip-path="url(#prefix__clip0)">
        <circle cx="36" cy="36" r="36" fill="#00BF51" opacity=".01" transform="rotate(-180 36 36)"/>
        <circle cx="36" cy="36" r="32" fill="#00BF51" opacity=".05" transform="rotate(-180 36 36)"/>
        <g filter="url(#prefix__filter0_d)">
            <circle cx="35.969" cy="36.231" r="25.5" fill="#00BF51" transform="rotate(75 35.969 36.231)"/>
        </g>
        <g filter="url(#prefix__filter1_d)">
            <path fill="url(#prefix__paint0_radial)" d="M23.393 42.598c0 .284-.158.545-.244.815-.025.077-.038.16-.038.245 0 .445.361.806.806.806.446 0 .807-.361.807-.806 0-.102-.02-.2-.053-.289-.105-.272-.278-.535-.278-.826 0-.477.37-.867.837-.965.208-.043.412-.097.613-.16.59-.185 1.262-.046 1.638.446l.257.335c.086.112.106.258.106.398 0 .446.36.807.806.807.445 0 .806-.361.806-.807 0-.254-.117-.48-.3-.628-.252-.203-.584-.326-.78-.583-.376-.49-.264-1.187.167-1.628.144-.148.281-.302.41-.463.286-.353.784-.484 1.177-.257.222.128.352.369.508.573.147.192.38.317.64.317.446 0 .807-.361.807-.806 0-.446-.36-.807-.806-.807-.195 0-.4.001-.567-.096l-.123-.07c-.403-.233-.562-.728-.437-1.176.035-.123.066-.247.093-.373.087-.4.425-.712.835-.712.272 0 .514.166.757.286.108.053.229.083.357.083.445 0 .806-.36.806-.806 0-.445-.361-.806-.806-.806-.091 0-.179.015-.26.042-.23.079-.454.2-.695.2-.479 0-.867-.377-.953-.847-.035-.195-.08-.387-.132-.575-.133-.475.034-1 .461-1.247l.135-.078c.188-.108.42-.1.637-.1.446 0 .807-.36.807-.806 0-.446-.361-.806-.807-.806-.234 0-.445.1-.592.259-.19.205-.337.467-.58.607-.454.263-1.03.113-1.37-.287-.11-.132-.228-.258-.35-.38-.395-.397-.483-1.035-.129-1.467l.28-.34c.032-.04.082-.06.133-.06.445 0 .806-.361.806-.806 0-.446-.36-.807-.806-.807-.445 0-.806.361-.806.807 0 .064-.017.129-.058.179l-.327.399c-.429.523-1.16.659-1.808.462-.171-.052-.345-.096-.522-.134-.483-.104-.865-.506-.865-1 0-.277.154-.532.243-.795.028-.081.043-.168.043-.259 0-.445-.361-.806-.807-.806-.445 0-.806.361-.806.806 0 .104.02.204.056.295.104.264.27.52.27.804 0 .468-.362.85-.82.945-.267.055-.527.127-.78.213-.468.16-1.003.038-1.295-.361l-.15-.207c-.112-.152-.124-.352-.124-.541 0-.446-.36-.807-.806-.807-.446 0-.807.361-.807.807 0 .256.12.485.307.632.209.166.465.286.623.5.33.452.22 1.082-.18 1.472-.076.073-.15.148-.222.226-.413.442-1.075.608-1.599.305-.3-.172-.473-.512-.729-.744-.143-.13-.332-.208-.54-.208-.446 0-.807.361-.807.806 0 .446.361.807.807.807.199 0 .409-.003.581.097l.22.127c.518.299.711.941.553 1.517-.019.069-.037.137-.053.206-.136.567-.61 1.02-1.192 1.02-.26 0-.506-.122-.76-.171-.05-.01-.103-.015-.156-.015-.445 0-.806.36-.806.806 0 .445.36.806.806.806.134 0 .26-.032.372-.09.265-.138.527-.337.826-.337.423 0 .77.328.85.743.018.09.037.178.058.266.127.534-.064 1.115-.54 1.39l-.402.232c-.107.062-.234.074-.357.074-.446 0-.807.36-.807.806 0 .446.361.806.807.806.259 0 .49-.122.637-.312.196-.253.338-.576.615-.736.433-.25.98-.1 1.293.29.052.065.106.13.161.193.427.493.513 1.233.098 1.735l-.077.092c-.208.253-.539.383-.776.608-.155.147-.252.355-.252.585 0 .445.361.806.806.806.446 0 .807-.36.807-.806 0-.172.02-.354.13-.487l.275-.334c.388-.468 1.053-.577 1.623-.363.288.108.586.196.892.263.496.108.89.523.89 1.031z"/>
            <path stroke="#4FD98B" stroke-width=".5" d="M23.393 42.598c0 .284-.158.545-.244.815-.025.077-.038.16-.038.245 0 .445.361.806.806.806.446 0 .807-.361.807-.806 0-.102-.02-.2-.053-.289-.105-.272-.278-.535-.278-.826 0-.477.37-.867.837-.965.208-.043.412-.097.613-.16.59-.185 1.262-.046 1.638.446l.257.335c.086.112.106.258.106.398 0 .446.36.807.806.807.445 0 .806-.361.806-.807 0-.254-.117-.48-.3-.628-.252-.203-.584-.326-.78-.583-.376-.49-.264-1.187.167-1.628.144-.148.281-.302.41-.463.286-.353.784-.484 1.177-.257.222.128.352.369.508.573.147.192.38.317.64.317.446 0 .807-.361.807-.806 0-.446-.36-.807-.806-.807-.195 0-.4.001-.567-.096l-.123-.07c-.403-.233-.562-.728-.437-1.176.035-.123.066-.247.093-.373.087-.4.425-.712.835-.712.272 0 .514.166.757.286.108.053.229.083.357.083.445 0 .806-.36.806-.806 0-.445-.361-.806-.806-.806-.091 0-.179.015-.26.042-.23.079-.454.2-.695.2-.479 0-.867-.377-.953-.847-.035-.195-.08-.387-.132-.575-.133-.475.034-1 .461-1.247l.135-.078c.188-.108.42-.1.637-.1.446 0 .807-.36.807-.806 0-.446-.361-.806-.807-.806-.234 0-.445.1-.592.259-.19.205-.337.467-.58.607-.454.263-1.03.113-1.37-.287-.11-.132-.228-.258-.35-.38-.395-.397-.483-1.035-.129-1.467l.28-.34c.032-.04.082-.06.133-.06.445 0 .806-.361.806-.806 0-.446-.36-.807-.806-.807-.445 0-.806.361-.806.807 0 .064-.017.129-.058.179l-.327.399c-.429.523-1.16.659-1.808.462-.171-.052-.345-.096-.522-.134-.483-.104-.865-.506-.865-1 0-.277.154-.532.243-.795.028-.081.043-.168.043-.259 0-.445-.361-.806-.807-.806-.445 0-.806.361-.806.806 0 .104.02.204.056.295.104.264.27.52.27.804 0 .468-.362.85-.82.945-.267.055-.527.127-.78.213-.468.16-1.003.038-1.295-.361l-.15-.207c-.112-.152-.124-.352-.124-.541 0-.446-.36-.807-.806-.807-.446 0-.807.361-.807.807 0 .256.12.485.307.632.209.166.465.286.623.5.33.452.22 1.082-.18 1.472-.076.073-.15.148-.222.226-.413.442-1.075.608-1.599.305-.3-.172-.473-.512-.729-.744-.143-.13-.332-.208-.54-.208-.446 0-.807.361-.807.806 0 .446.361.807.807.807.199 0 .409-.003.581.097l.22.127c.518.299.711.941.553 1.517-.019.069-.037.137-.053.206-.136.567-.61 1.02-1.192 1.02-.26 0-.506-.122-.76-.171-.05-.01-.103-.015-.156-.015-.445 0-.806.36-.806.806 0 .445.36.806.806.806.134 0 .26-.032.372-.09.265-.138.527-.337.826-.337.423 0 .77.328.85.743.018.09.037.178.058.266.127.534-.064 1.115-.54 1.39l-.402.232c-.107.062-.234.074-.357.074-.446 0-.807.36-.807.806 0 .446.361.806.807.806.259 0 .49-.122.637-.312.196-.253.338-.576.615-.736.433-.25.98-.1 1.293.29.052.065.106.13.161.193.427.493.513 1.233.098 1.735l-.077.092c-.208.253-.539.383-.776.608-.155.147-.252.355-.252.585 0 .445.361.806.806.806.446 0 .807-.36.807-.806 0-.172.02-.354.13-.487l.275-.334c.388-.468 1.053-.577 1.623-.363.288.108.586.196.892.263.496.108.89.523.89 1.031z"/>
        </g>
    </g>
    <defs>
        <filter id="prefix__filter0_d" width="55.013" height="55.013" x="8.462" y="8.725" color-interpolation-filters="sRGB" filterUnits="userSpaceOnUse">
            <feFlood flood-opacity="0" result="BackgroundImageFix"/>
            <feColorMatrix in="SourceAlpha" values="0 0 0 0 0 0 0 0 0 0 0 0 0 0 0 0 0 0 127 0"/>
            <feOffset/>
            <feGaussianBlur stdDeviation="1"/>
            <feColorMatrix values="0 0 0 0 0.113056 0 0 0 0 0.616667 0 0 0 0 0.326629 0 0 0 1 0"/>
            <feBlend in2="BackgroundImageFix" result="effect1_dropShadow"/>
            <feBlend in="SourceGraphic" in2="effect1_dropShadow" result="shape"/>
        </filter>
        <filter id="prefix__filter1_d" width="26.843" height="26.964" x="10.407" y="23.75" color-interpolation-filters="sRGB" filterUnits="userSpaceOnUse">
            <feFlood flood-opacity="0" result="BackgroundImageFix"/>
            <feColorMatrix in="SourceAlpha" values="0 0 0 0 0 0 0 0 0 0 0 0 0 0 0 0 0 0 127 0"/>
            <feOffset dy="2"/>
            <feGaussianBlur stdDeviation="2"/>
            <feColorMatrix values="0 0 0 0 0 0 0 0 0 0 0 0 0 0 0 0 0 0 0.25 0"/>
            <feBlend in2="BackgroundImageFix" result="effect1_dropShadow"/>
            <feBlend in="SourceGraphic" in2="effect1_dropShadow" result="shape"/>
        </filter>
        <radialGradient id="prefix__paint0_radial" cx="0" cy="0" r="1" gradientTransform="matrix(0 -9.23199 9.17154 0 23.828 35.232)" gradientUnits="userSpaceOnUse">
            <stop stop-color="#A7FFCC"/>
            <stop offset="1" stop-color="#0FAE53"/>
        </radialGradient>
        <clipPath id="prefix__clip0">
            <path fill="#fff" d="M22 72H44V144H22z" transform="rotate(-180 22 72)"/>
        </clipPath>
    </defs>
</svg>
