<?xml version="1.0" encoding="UTF-8"?>
<!DOCTYPE svg PUBLIC "-//W3C//DTD SVG 1.1//EN" "http://www.w3.org/Graphics/SVG/1.1/DTD/svg11.dtd">
<!-- Creator: CorelDRAW 2017 -->
<svg xmlns="http://www.w3.org/2000/svg" xml:space="preserve" width="250.677mm" height="22.791mm" version="1.1" style="shape-rendering:geometricPrecision; text-rendering:geometricPrecision; image-rendering:optimizeQuality; fill-rule:evenodd; clip-rule:evenodd"
viewBox="0 0 24908.18 2264.6"
 xmlns:xlink="http://www.w3.org/1999/xlink">
 <defs>
  <style type="text/css">
   <![CDATA[
    .fil1 {fill:#FEFEFE}
    .fil0 {fill:#FEFEFE}
    .fil3 {fill:#FEFEFE;fill-rule:nonzero}
    .fil2 {fill:#FEFEFE;fill-rule:nonzero}
   ]]>
  </style>
 </defs>
 <g id="Слой_x0020_1">
  <metadata id="CorelCorpID_0Corel-Layer"/>
  <g id="_501893493600">
   <path class="fil0" d="M19446.1 623.45c-752.25,157.95 -571.1,1315.73 279.36,1143.66 747.13,-151.16 556.07,-1319.07 -279.36,-1143.66zm32.05 159.06c-585.47,150.43 -354.97,983.52 229.56,833.48 544.33,-139.72 350.35,-982.47 -229.56,-833.48z"/>
   <path class="fil0" d="M21977.63 1771.12c172.11,0 480.21,19.04 616.02,-46.68 168.66,-81.61 298.09,-362.32 -31.69,-535.96l-59.48 -35.62c232.4,-92.94 273.71,-528.08 -257.63,-528.08l-267.23 0 0 1146.34zm174.83 -654.17c390.53,59.9 528.63,-352.11 0.01,-328.2l-0.01 328.2zm-10.62 497.87c84.62,4.93 165.9,13.58 250.41,2.27 127.71,-17.1 237.24,-74.23 192.94,-231.15 -39.1,-138.51 -280.2,-135.51 -443.35,-115.01l0 343.9z"/>
   <path class="fil0" d="M20759.01 766.61l672.87 2.89 -710.08 1002.81 1025.28 -1.19 -8.55 -146.62 -708.03 0.4c60.43,-143.65 644.66,-866.47 702.44,-1001.73l-973.95 0.36 0.01 143.09z"/>
   <path class="fil0" d="M23947.5 1771.12l164.21 0 0 -548.91c228.91,137.33 463.93,556.81 715,548.91l81.47 -5.13c-212.36,-208.73 -360.13,-376.19 -600.79,-590.48 56.39,-97.58 156.16,-172.31 231.06,-263.47 105.69,-128.65 198.95,-195.24 244.79,-284.88l-205.1 -1.01c-51.57,79.54 -401.65,468.84 -466.43,505.78l0 -507.15 -164.22 0 0.01 1146.34z"/>
   <polygon class="fil0" points="23003.52,1771.12 23668.44,1771.12 23662.76,1623.16 23167.62,1622.2 23168.04,1270.91 23637.07,1264.88 23634.93,1124.65 23167.61,1116.96 23170.09,774.65 23653.38,772.4 23653.38,624.78 23003.14,624.78 "/>
   <rect class="fil1" x="17300.77" y="0" width="229.74" height="2264.59"/>
   <g>
    <path class="fil2" d="M15521.39 376.81c-119.59,-75.17 -239.18,-112.76 -358.76,-112.76 -146.92,0 -265.65,38.44 -356.2,115.32 -90.54,76.88 -135.81,181.93 -135.81,315.19 0,75.17 17.08,139.23 51.25,192.19 34.16,52.96 77.73,99.94 130.68,140.94 52.96,41.01 109.34,78.59 169.13,112.76 59.8,34.17 116.18,69.19 169.14,105.07 52.96,35.87 96.52,74.31 130.69,115.31 34.16,41.01 51.24,88.84 51.24,143.51 0,44.42 -21.35,88.83 -64.06,133.25 -42.71,44.42 -110.19,66.62 -202.44,66.62 -164,0 -304.09,-76.88 -420.26,-230.63l0 292.14c136.67,99.09 285.3,148.63 445.88,148.63 133.26,0 242.59,-41 328.01,-123 85.41,-82 128.13,-187.92 128.13,-317.76 0,-85.41 -17.08,-157.16 -51.25,-215.25 -34.17,-58.09 -76.88,-108.48 -128.13,-151.19 -51.25,-42.71 -107.62,-80.3 -169.13,-112.75 -61.51,-32.46 -117.89,-64.92 -169.13,-97.38 -51.25,-32.46 -93.96,-66.63 -128.13,-102.5 -34.17,-35.88 -51.25,-79.44 -51.25,-130.69 0,-58.09 23.06,-104.21 69.19,-138.37 46.12,-34.17 108.49,-51.25 187.07,-51.25 51.24,0 109.33,11.1 174.25,33.31 64.91,22.22 131.54,65.78 199.88,130.69l0 -261.38z"/>
    <polygon class="fil2" points="14578.36,284.55 14352.86,284.55 13912.09,1391.58 13466.21,284.55 13245.83,284.55 12794.82,1391.58 12359.19,284.55 12123.43,284.55 12779.45,1909.21 12820.44,1909.21 13353.45,592.06 13881.34,1909.21 13922.35,1909.21 "/>
    <polygon class="fil2" points="12036.3,284.55 11124.03,284.55 11124.03,1888.71 12056.8,1888.71 12056.8,1683.71 11354.66,1683.71 11354.66,1186.57 12010.67,1186.57 12010.67,976.45 11354.66,976.45 11354.66,489.55 12036.3,489.55 "/>
    <polygon class="fil2" points="10770.39,284.55 10550.01,284.55 10550.01,1529.95 9463.49,284.55 9278.98,284.55 9278.98,1888.71 9499.36,1888.71 9499.36,653.56 10570.51,1888.71 10770.39,1888.71 "/>
   </g>
   <path class="fil3" d="M6991.92 311.48c17.07,4.27 29.88,6.41 38.41,6.41 17.07,4.26 28.82,6.4 35.21,6.4 2.14,2.14 5.34,3.2 9.61,3.2 4.26,0 8.54,2.14 12.81,6.41 6.4,0 11.73,0.53 16.01,1.6 4.26,1.06 8.54,2.66 12.81,4.8 4.26,2.14 9.6,3.2 16,3.2 6.4,0 11.73,1.07 16.01,3.2l6.4 3.21c4.27,0 8.55,1.06 12.81,3.2 4.27,2.14 8.54,4.27 12.81,6.4l38.42 9.61c4.26,2.14 9.07,4.27 14.41,6.4 5.34,2.14 10.14,3.21 14.4,3.21 6.41,4.26 18.14,8.54 35.21,12.8 10.67,4.27 19.21,7.47 25.62,9.61 6.4,2.14 13.87,5.34 22.41,9.61 17.08,6.4 29.89,11.21 38.42,14.41 8.54,3.2 12.81,4.8 12.81,4.8l0 300.93 -32.02 -19.22c-8.54,-6.39 -22.41,-13.86 -41.61,-22.4 -4.27,-2.14 -9.07,-4.27 -14.41,-6.41 -5.34,-2.14 -10.15,-4.26 -14.41,-6.4 -8.54,-4.27 -16,-8.01 -22.41,-11.21 -6.4,-3.2 -12.81,-6.94 -19.21,-11.21 -10.67,-4.26 -20.28,-8 -28.82,-11.2 -8.54,-3.21 -18.14,-6.95 -28.82,-11.21 -4.27,-2.14 -10.14,-4.81 -17.61,-8.01 -7.47,-3.2 -16.54,-6.94 -27.22,-11.2 0,0 -2.14,-0.54 -6.4,-1.61 -4.26,-1.06 -10.67,-2.66 -19.21,-4.8 -4.26,-2.14 -9.6,-4.27 -16.01,-6.4 -6.4,-2.14 -13.87,-4.27 -22.41,-6.41 -4.27,-2.14 -9.61,-3.74 -16.01,-4.8 -6.41,-1.06 -11.74,-2.67 -16.02,-4.8 -10.67,-2.14 -20.81,-4.27 -30.42,-6.41 -9.6,-2.13 -19.73,-5.33 -30.41,-9.6 -4.26,0 -10.14,-0.53 -17.61,-1.6 -7.47,-1.06 -16.54,-2.66 -27.22,-4.8 -17.07,0 -35.21,-3.2 -54.42,-9.61l-28.81 0c-8.55,0 -16.54,-0.53 -24.02,-1.6 -7.47,-1.06 -16.54,-1.6 -27.22,-1.6l-16.01 0c-10.67,0 -21.88,0.54 -33.61,1.6 -11.74,1.07 -22.94,1.6 -33.61,1.6 -6.4,0 -12.27,1.07 -17.61,3.21 -5.34,2.13 -11.2,3.2 -17.61,3.2 -4.27,2.14 -10.67,3.2 -19.21,3.2 -8.54,0 -13.87,1.06 -16.01,3.2 -6.41,0 -12.27,0.54 -17.61,1.6 -5.34,1.07 -11.21,1.6 -17.62,1.6 -12.8,4.27 -22.4,6.41 -28.81,6.41 -6.4,4.26 -18.14,8.53 -35.21,12.8 -4.27,2.14 -9.61,3.74 -16.01,4.8 -6.41,1.07 -11.74,2.67 -16.01,4.8 -8.54,6.41 -19.21,11.74 -32.01,16.02 -29.88,14.93 -60.29,32.54 -91.25,52.82 -30.94,20.28 -61.35,45.35 -91.24,75.23l-9.6 9.61 -22.42 22.41c-4.27,6.41 -9.61,12.81 -16.01,19.22 -4.27,8.54 -9.07,17.07 -14.41,25.61 -5.34,8.55 -11.21,17.08 -17.61,25.61 -2.14,4.27 -4.27,8.54 -6.41,12.81 -2.13,4.27 -4.26,8.54 -6.4,12.81 -2.14,4.27 -4.27,9.07 -6.4,14.41 -2.14,5.34 -4.26,11.21 -6.4,17.61 -6.4,6.4 -10.67,13.87 -12.81,22.42 -2.14,4.26 -3.74,9.6 -4.8,16.01 -1.07,6.4 -2.67,11.73 -4.8,16.01 -4.27,6.4 -8.55,18.14 -12.81,35.2 -2.14,6.41 -3.21,14.94 -3.21,25.62 0,8.54 -1.06,16.01 -3.2,22.41 -2.14,8.55 -3.2,20.28 -3.2,35.22 0,8.54 -2.14,19.21 -6.4,32.01l0 19.2c0,6.41 2.13,16.01 6.4,28.82l0 28.82c2.14,10.67 3.74,23.48 4.8,38.42 1.07,14.93 3.74,30.94 8.01,48.01 2.14,4.27 3.2,10.67 3.2,19.21 0,4.27 2.14,8.55 6.41,12.81 6.4,12.81 11.2,24.02 14.41,33.61 3.2,9.61 8,22.95 14.4,40.02 4.26,4.26 7.46,9.6 9.6,16 2.14,6.41 5.34,11.74 9.61,16.01 4.27,6.41 8.54,13.88 12.81,22.42 4.26,8.54 9.6,16.01 16.01,22.41 2.14,4.27 4.8,8.01 8,11.21 3.21,3.2 6.94,6.94 11.21,11.21 4.27,8.54 9.61,15.47 16.01,20.81 6.41,5.34 13.87,12.27 22.42,20.81l3.2 3.2 3.2 3.2 3.2 3.2 12.81 9.61 22.41 22.42c4.26,4.26 8.54,7.46 12.81,9.6 4.26,2.14 8.54,5.34 12.81,9.61 8.54,4.26 16.01,8.54 22.41,12.81 6.4,4.26 13.87,8.54 22.42,12.81 6.4,4.26 13.33,8 20.81,11.2 7.47,3.21 15.47,6.94 24.01,11.21 4.26,2.14 6.94,3.74 8,4.8 1.07,1.07 3.74,2.67 8.01,4.81 4.26,0 7.47,0.53 9.6,1.6 2.14,1.06 4.27,1.6 6.41,1.6 6.4,6.39 12.81,9.6 19.21,9.6 36.29,10.67 80.04,21.34 131.26,32.01 25.62,8.54 52.3,12.81 80.04,12.81 10.66,0 21.87,0.53 33.61,1.6 11.73,1.06 22.94,1.6 33.61,1.6 17.07,0 28.82,-1.07 35.21,-3.2l22.42 0c8.54,0 19.2,-2.14 32.01,-6.41 8.54,0 16.54,-0.53 24.02,-1.6 7.46,-1.06 14.41,-1.6 20.81,-1.6 4.27,-2.14 10.67,-3.2 19.21,-3.2 25.62,-4.27 53.88,-10.67 84.84,-19.21 30.95,-8.55 63.5,-18.13 97.64,-28.82 17.07,-8.54 34.68,-16.01 52.82,-22.41 18.14,-6.4 36.82,-13.87 56.03,-22.42 10.67,-4.26 21.34,-9.6 32.01,-16.01 10.67,-6.4 21.34,-11.73 32.01,-16.01 10.68,-6.4 20.82,-12.27 30.43,-17.61 9.6,-5.34 19.73,-12.27 30.42,-20.81l22.41 -12.8c0,-2.14 1.06,-3.2 3.2,-3.2 4.27,0 6.4,-1.07 6.4,-3.21l0 307.33c-2.13,2.14 -4.26,3.21 -6.4,3.21 -4.26,0 -7.47,1.06 -9.6,3.2 -4.27,4.26 -9.61,7.47 -16.01,9.6 -6.41,2.14 -11.74,5.34 -16.02,9.61 -8.54,2.14 -15.47,4.27 -20.81,6.4 -5.34,2.14 -12.27,4.27 -20.81,6.41 -10.67,4.26 -19.74,8 -27.22,11.21 -7.47,3.2 -14.41,6.94 -20.81,11.2 -12.81,6.41 -21.34,9.61 -25.61,9.61l-16.01 6.4c-8.55,2.14 -16.01,4.27 -22.42,6.41 -6.4,2.14 -13.87,5.34 -22.41,9.6 -25.62,6.41 -44.29,10.68 -56.02,12.8 -11.74,2.14 -25.08,5.35 -40.02,9.61 -6.4,2.14 -20.28,5.34 -41.62,9.61 -10.67,2.14 -22.41,3.74 -35.21,4.8 -12.8,1.06 -24.54,1.6 -35.21,1.6 -12.8,4.27 -21.34,6.41 -25.61,6.41 -10.67,0 -18.14,1.06 -22.42,3.2l-12.81 0c-10.67,2.14 -22.41,3.2 -35.21,3.2 -10.66,0 -21.33,0 -32.01,0l-70.44 0 -19.21 0 -41.61 0c-14.94,0 -28.82,-0.54 -41.62,-1.6 -12.81,-1.06 -25.62,-2.67 -38.42,-4.8 -12.8,-4.27 -26.14,-6.95 -40,-8.01 -13.88,-1.06 -26.15,-2.66 -36.82,-4.8 -17.07,-4.27 -32.01,-7.47 -44.82,-9.61 -12.81,-2.14 -27.74,-6.4 -44.81,-12.8 -6.4,-2.14 -13.33,-3.74 -20.81,-4.8 -7.47,-1.07 -15.48,-3.74 -24.02,-8.01 -6.4,-4.26 -13.33,-6.94 -20.81,-8 -7.47,-1.07 -14.41,-3.74 -20.82,-8.01 -19.21,-8.54 -37.89,-17.07 -56.02,-25.61 -18.13,-8.55 -34.68,-16.02 -49.62,-22.42 -8.54,-6.4 -16.01,-11.73 -22.41,-16.01 -6.41,-4.27 -13.88,-9.61 -22.42,-16.01 -14.94,-6.41 -27.74,-14.94 -38.41,-25.61 -4.26,-4.27 -9.07,-7.47 -14.41,-9.61 -5.34,-2.13 -10.14,-5.34 -14.41,-9.6 -6.4,-2.14 -14.93,-10.67 -25.61,-25.62 -8.54,-4.27 -15.48,-9.07 -20.82,-14.41 -5.34,-5.34 -11.2,-10.14 -17.61,-14.41l-3.2 -6.4c-8.54,-6.41 -15.47,-13.34 -20.81,-20.82 -5.34,-7.47 -11.2,-14.41 -17.61,-20.81 -23.48,-25.61 -42.69,-49.09 -57.63,-70.43 -14.93,-21.34 -30.94,-48.02 -48.02,-80.03 -6.4,-10.67 -13.33,-22.42 -20.8,-35.22 -7.47,-12.81 -13.34,-26.68 -17.61,-41.62 -4.27,-8.54 -7.47,-17.07 -9.61,-25.61 -2.14,-8.55 -5.34,-18.14 -9.61,-28.81 -2.14,-6.41 -4.26,-13.34 -6.4,-20.82 -2.14,-7.47 -5.34,-15.47 -9.61,-24.01 0,-6.41 -2.14,-18.14 -6.4,-35.22 0,-2.13 -0.54,-4.8 -1.6,-8 -1.07,-3.2 -1.6,-5.87 -1.6,-8.01 -2.14,-4.26 -3.21,-10.67 -3.21,-19.21 0,-10.66 -1.06,-19.2 -3.2,-25.61l0 -9.61c0,-6.4 -1.06,-12.8 -3.2,-19.21 -2.14,-6.4 -3.2,-12.81 -3.2,-19.21l0 -38.42 0 -51.21c4.26,-12.81 6.4,-23.48 6.4,-32.01 0,-14.94 1.07,-25.62 3.2,-32.01 4.27,-34.15 10.67,-66.17 19.22,-96.04 8.54,-29.88 18.13,-59.77 28.82,-89.64 8.54,-21.34 17.61,-42.69 27.2,-64.03 9.61,-21.35 21.88,-43.76 36.82,-67.23l9.61 -19.21c4.26,-4.27 8,-9.07 11.2,-14.41 3.21,-5.34 6.94,-10.15 11.21,-14.41 12.81,-17.08 23.48,-28.82 32.01,-35.22 6.41,-12.8 14.94,-24.54 25.62,-35.21l28.81 -28.81c4.27,-6.4 9.61,-12.27 16.01,-17.61 6.4,-5.34 13.87,-11.21 22.42,-17.61 4.26,-6.41 10.14,-12.81 17.61,-19.22 7.47,-6.4 14.41,-11.73 20.81,-16.01 8.54,-8.54 16.01,-13.87 22.42,-16.01 14.92,-10.67 24.53,-17.07 28.81,-19.21 8.54,-4.27 16.53,-9.07 24.01,-14.4 7.47,-5.34 16.54,-10.15 27.22,-14.41 8.54,-4.27 16.54,-9.61 24.02,-16.01 7.47,-6.41 16.53,-11.74 27.22,-16.01 10.67,-4.27 22.4,-9.07 35.2,-14.41 12.81,-5.34 24.54,-10.15 35.21,-14.41 49.1,-23.48 101.38,-39.49 156.88,-48.02 6.4,-2.14 17.07,-3.21 32.01,-3.21 2.14,-2.13 7.47,-3.2 16.01,-3.2l19.21 -3.19 12.8 -6.41 9.61 0c6.41,-2.13 13.87,-3.2 22.42,-3.2l19.21 0c6.4,-2.14 16.01,-3.2 28.82,-3.2l54.42 0c4.26,-2.14 12.8,-3.2 25.61,-3.2 10.67,0 21.88,0.53 33.62,1.6 11.73,1.06 22.94,1.6 33.61,1.6l16 0c10.67,0 17.07,1.06 19.21,3.2 10.67,0 20.28,0.54 28.82,1.6 8.54,1.07 18.14,1.6 28.82,1.6l9.61 6.41c6.4,0 12.27,0.53 17.61,1.59 5.34,1.06 11.21,1.6 17.61,1.6zm-6364.44 3.2l525.03 0c89.65,0 165.95,12.81 228.91,38.42 62.96,25.62 107.78,49.1 134.46,70.44 26.67,21.33 41.08,34.14 43.21,38.4 2.14,2.14 11.73,12.81 28.82,32.01 17.07,19.22 35.21,49.63 54.42,91.25 19.22,41.61 28.81,90.17 28.81,145.67 0,42.69 -4.26,79.5 -12.8,110.45 -8.54,30.94 -18.13,56.56 -28.82,76.83 -10.67,20.28 -21.34,36.29 -32.01,48.02 -10.67,11.73 -18.14,20.81 -22.41,27.21 -25.62,23.48 -50.15,41.62 -73.63,54.43 -23.48,12.81 -35.22,19.21 -35.22,19.21 4.27,0 17.62,3.74 40.02,11.21 22.42,7.47 52.82,21.34 91.24,41.61 38.42,20.28 73.63,47.49 105.65,81.64 32.01,29.89 55.49,61.36 70.43,94.45 14.94,33.08 25.62,64.03 32.01,92.84 6.4,28.82 9.6,52.83 9.6,72.04 0,17.07 0,25.62 0,25.62 0,0 0,8.54 0,25.61 0,17.07 -3.2,39.49 -9.6,67.23 -6.4,27.75 -18.14,58.17 -35.21,91.24 -17.07,33.09 -42.69,66.7 -76.84,100.85 -40.55,40.55 -87.5,71.49 -140.87,92.84 -53.35,21.34 -103.51,36.82 -150.47,46.42 -46.95,9.6 -86.44,14.93 -118.45,16.01 -32.01,1.06 -48.01,1.6 -48.01,1.6l-608.27 0 0 -1613.53zm-627.48 -313.73l0 2241 2381.87 0 0 -2241 -2381.87 0zm918.81 566.65l188.89 0 41.61 0c21.34,2.14 42.69,4.27 64.03,6.41 21.34,2.13 40.56,8.53 57.62,19.2 21.34,10.67 40.56,23.48 57.63,38.42 6.41,6.4 16.01,18.14 28.82,35.21 8.54,27.75 14.94,54.42 19.21,80.04l0 19.21 0 6.4c0,4.27 -1.06,9.61 -3.2,16.01 0,6.41 -5.34,27.75 -16.01,64.03 -6.4,17.07 -19.21,35.21 -38.42,54.42 -25.61,25.62 -52.29,42.7 -80.03,51.23 -4.27,0 -8.01,0.54 -11.21,1.6 -3.2,1.06 -6.94,1.6 -11.21,1.6 -21.34,6.41 -41.61,10.67 -60.83,12.81 -19.21,2.13 -35.2,4.26 -48.01,6.4l-35.21 0c-2.14,2.13 -6.41,3.2 -12.81,3.2l-3.2 0 -137.67 0 0 -416.18zm0 669.1l275.33 0 28.82 0c6.4,2.14 18.14,3.2 35.21,3.2 4.27,2.14 11.73,3.19 22.41,3.19 10.67,0 19.21,1.07 25.62,3.21 17.07,4.26 32.01,8.54 44.82,12.8 12.8,4.27 25.61,8.55 38.41,12.81 10.66,4.27 20.27,9.07 28.81,14.41 8.54,5.34 18.14,10.15 28.82,14.41l22.42 22.42c6.4,6.4 9.6,10.67 9.6,12.81 21.34,23.47 33.09,45.88 35.22,67.22 4.26,12.81 6.4,21.34 6.4,25.62l0 19.21 0 9.61 0 12.81c-2.14,10.67 -4.8,24.01 -8,40 -3.21,16.02 -10.15,33.62 -20.82,52.83 -6.4,12.81 -14.94,22.41 -25.62,28.82 -12.8,17.07 -27.74,29.35 -44.82,36.81 -17.07,7.47 -35.2,15.47 -54.41,24.01 -19.22,4.27 -38.42,8.54 -57.63,12.81 -19.21,4.27 -36.29,7.47 -51.22,9.61l-41.62 0 -16.01 0 -281.73 0 0 -438.59zm2452.3 -922.03l525.03 0c89.64,0 165.95,12.81 228.9,38.42 62.97,25.62 107.78,49.1 134.46,70.44 26.68,21.33 41.09,34.14 43.22,38.4 2.14,2.14 11.73,12.81 28.82,32.01 17.06,19.22 35.2,49.63 54.41,91.25 19.22,41.61 28.82,90.17 28.82,145.67 0,42.69 -4.26,79.5 -12.8,110.45 -8.55,30.94 -18.14,56.56 -28.82,76.83 -10.67,20.28 -21.34,36.29 -32.02,48.02 -10.66,11.73 -18.13,20.81 -22.4,27.21 -23.48,23.48 -47.5,41.62 -72.04,54.43 -24.54,12.81 -36.81,19.21 -36.81,19.21 0,0 8,2.14 24.01,6.41 16.01,4.26 35.22,11.2 57.63,20.81 22.42,9.61 48.01,23.47 76.83,41.61 28.82,18.14 56.03,40.02 81.65,65.63 29.87,29.89 52.81,61.89 68.82,96.04 16.02,34.15 27.22,65.1 33.62,92.84 6.4,27.75 10.14,50.7 11.2,68.84 1.07,18.14 1.61,27.22 1.61,27.22 0,0 -0.54,8.54 -1.61,25.61 -1.06,17.07 -5.34,39.49 -12.8,67.23 -7.47,27.75 -19.74,58.17 -36.82,91.24 -17.07,33.09 -42.69,66.7 -76.83,100.85 -40.55,40.55 -87.51,71.49 -140.87,92.84 -53.36,21.34 -103.51,36.82 -150.47,46.42 -46.96,9.6 -86.44,14.93 -118.45,16.01 -32.01,1.06 -48.02,1.6 -48.02,1.6l-608.26 0 0 -1613.53zm-627.49 -313.73l0 2241 2381.88 0 0 -2241 -2381.88 0zm918.82 566.65l188.88 0 44.82 0c19.21,2.14 39.48,4.27 60.82,6.41 21.34,2.13 40.56,8.53 57.63,19.2 21.34,10.67 40.56,23.48 57.62,38.42 6.41,6.4 16.01,18.14 28.82,35.21 6.41,17.08 10.67,32.01 12.81,44.81 2.14,12.81 4.27,24.55 6.4,35.22l0 19.21 0 6.4c0,4.27 -1.06,9.61 -3.2,16.01 0,19.22 -4.26,40.56 -12.81,64.03 -6.4,10.67 -12.8,20.28 -19.21,28.82 -6.4,8.54 -12.81,17.07 -19.21,25.61 -25.61,25.62 -53.36,42.7 -83.24,51.23 -4.27,0 -8,0.54 -11.21,1.6 -3.2,1.06 -6.94,1.6 -11.2,1.6 -21.34,6.41 -41.61,10.67 -60.83,12.81 -19.21,2.13 -35.21,4.26 -48.02,6.4l-32.01 0c-4.27,2.13 -9.61,3.2 -16.01,3.2l-3.2 0 -137.66 0 0 -416.18zm0 669.1l275.32 0 28.82 0c6.4,2.14 18.14,3.2 35.21,3.2 4.27,2.14 11.74,3.19 22.42,3.19 10.67,0 19.21,1.07 25.62,3.21 29.87,6.4 58.68,14.93 86.44,25.61 10.67,4.27 19.73,9.07 27.21,14.41 7.47,5.34 16.54,10.15 27.22,14.41l22.41 22.42 12.81 12.81c19.21,29.88 29.88,52.28 32.01,67.22 4.26,12.81 6.4,21.34 6.4,25.62l0 19.21 0 9.61 0 12.81c0,10.67 -2.14,24.01 -6.4,40 -4.27,16.02 -11.74,33.62 -22.42,52.83 -6.4,12.81 -14.93,22.41 -25.61,28.82 -12.8,17.07 -27.74,29.35 -44.82,36.81 -17.07,7.47 -34.15,15.47 -51.22,24.01 -21.34,4.27 -41.62,8.54 -60.82,12.81 -19.21,4.27 -36.29,7.47 -51.23,9.61l-41.61 0 -16.01 0 -281.73 0 0 -438.59zm1831.22 -1235.76l0 2241 2378.66 0 0 -2241 -2378.66 0z"/>
   <path class="fil1" d="M20462.29 370.45c-201.7,112.31 -228.06,419.91 -50.74,419.91 59.17,0 107.13,-50.13 107.13,-111.96 0,-55.67 -39.74,-102 -90.66,-110.65 -7.66,-82.3 19.06,-106.91 65.03,-157.32 9.64,-8.47 26.83,-62.92 -30.77,-39.97z"/>
  </g>
 </g>
</svg>
