<?xml version="1.0" encoding="UTF-8"?>
<svg width="793px" height="195px" viewBox="0 0 793 195" version="1.1" xmlns="http://www.w3.org/2000/svg" xmlns:xlink="http://www.w3.org/1999/xlink">
    <!-- Generator: Sketch 53 (72520) - https://sketchapp.com -->
    <title>label-light-group</title>
    <desc>Created with Sketch.</desc>
    <g id="Page-1" stroke="none" stroke-width="1" fill="none" fill-rule="evenodd">
        <g id="label-light" transform="translate(-354.000000, -360.000000)">
            <g id="label-light-group" transform="translate(354.000000, 360.000000)">
                <path d="M50.549,177.95 L65.426,190.478 L65.426,191 L2.786,191 L2.786,190.478 L17.924,177.95 L17.924,88.688 L0.437,76.682 L0.437,76.16 L49.766,61.022 L49.244,89.732 C58.901,74.072 73.778,62.588 92.57,62.588 C112.406,62.588 123.629,71.462 127.544,90.254 C137.201,74.594 152.339,62.588 171.131,62.588 C196.448,62.588 207.932,77.465 207.932,108.002 L207.932,177.95 L222.809,190.478 L222.809,191 L160.691,191 L160.691,190.478 L175.568,177.95 L175.568,112.7 C175.568,89.471 167.999,81.119 153.122,81.119 C142.943,81.119 135.113,84.512 128.066,92.081 C128.849,96.518 129.371,102.521 129.371,108.002 L129.371,177.95 L144.248,190.478 L144.248,191 L81.869,191 L81.869,190.478 L96.746,177.95 L96.746,112.7 C96.746,89.471 89.177,81.119 74.561,81.119 C65.165,81.119 57.596,84.251 50.549,90.776 L50.549,177.95 Z M274.417156,177.95 L289.294156,190.478 L289.294156,191 L226.915156,191 L226.915156,190.478 L241.792156,177.95 L241.792156,88.688 L223.261156,77.465 L223.522156,76.943 C245.359156,76.943 262.324156,71.636 274.417156,61.022 C274.471719,79.466 274.471719,118.442 274.417156,177.95 Z M341.163312,177.95 L356.040312,190.478 L356.040312,191 L293.400312,191 L293.400312,190.478 L308.538312,177.95 L308.538312,88.688 L291.051312,76.682 L291.051312,76.16 L340.380312,61.022 L339.858312,89.732 C349.515312,74.072 364.392312,62.588 383.184312,62.588 C408.240312,62.588 419.985312,77.465 419.985312,108.002 L419.985312,177.95 L434.862312,190.478 L434.862312,191 L372.483312,191 L372.483312,190.478 L387.360312,177.95 L387.360312,112.7 C387.360312,89.471 379.791312,81.119 365.175312,81.119 C355.779312,81.119 348.210312,84.251 341.163312,90.776 L341.163312,177.95 Z M566.336468,122.618 C566.336468,169.337 541.019468,194.132 499.520468,194.132 C482.816468,194.132 462.458468,190.739 448.103468,184.214 L448.103468,28.397 L430.094468,17.174 L430.355468,16.652 L480.728468,0.731 L480.728468,88.166 C491.429468,71.723 504.740468,62.588 521.444468,62.588 C548.588468,62.588 566.336468,83.99 566.336468,122.618 Z M480.728468,91.037 L480.728468,175.601 C485.165468,185.258 493.778468,189.695 502.130468,189.695 C519.095468,189.695 533.189468,168.554 533.189468,129.926 C533.189468,95.474 523.010468,81.119 503.174468,81.119 C494.039468,81.119 486.992468,84.512 480.728468,91.037 Z M644.827625,173.252 L645.088625,166.466 C636.997625,182.126 625.774625,194.915 605.677625,194.915 C585.580625,194.915 574.357625,180.821 574.357625,162.029 C574.357625,136.973 589.495625,125.489 624.730625,123.14 L643.522625,121.835 L643.522625,112.439 C643.522625,92.603 635.953625,85.295 618.205625,85.295 C604.633625,85.295 590.800625,91.559 581.665625,101.216 L581.143625,100.694 C587.668625,76.682 605.677625,62.588 630.733625,62.588 C660.226625,62.588 676.147625,77.465 676.147625,108.524 L676.147625,163.334 C676.147625,175.079 680.062625,178.733 694.939625,178.733 L694.678625,179.516 C690.502625,187.607 682.150625,194.654 668.578625,194.654 C651.613625,194.654 644.566625,186.563 644.827625,173.252 Z M605.938625,155.765 C605.938625,167.51 612.202625,174.035 622.903625,174.035 C631.516625,174.035 638.563625,170.381 643.522625,165.161 L643.522625,126.011 L628.384625,127.577 C613.507625,129.404 605.938625,139.061 605.938625,155.765 Z M743.676781,177.167 L764.817781,190.478 L764.817781,191 L696.174781,191 L696.174781,190.478 L711.051781,177.95 L711.051781,88.688 L692.520781,76.682 L692.781781,76.16 L742.893781,60.5 L742.371781,95.474 C751.767781,74.855 761.946781,62.327 775.779781,62.327 C786.219781,62.327 792.222781,68.33 792.222781,79.814 C792.222781,91.559 785.436781,100.172 773.952781,104.087 L773.691781,104.087 C772.908781,94.43 768.210781,87.905 760.641781,87.905 C753.072781,87.905 747.852781,90.776 743.676781,96.779 L743.676781,177.167 Z" id="minbar-copy-3" fill="#222222"></path>
                <path d="M255.968,53.791 C245.267,53.791 237.437,45.5554444 237.437,35.261 C237.437,24.9665556 245.267,16.731 255.968,16.731 C266.408,16.731 274.499,24.9665556 274.499,35.261 C274.499,45.5554444 266.408,53.791 255.968,53.791 Z" id="Path" fill="#D50000"></path>
            </g>
        </g>
    </g>
</svg>