<svg width="20" height="14" viewBox="0 0 20 14" fill="none" xmlns="http://www.w3.org/2000/svg">
<path d="M13.0681 7.24982C13.0681 8.06355 12.7449 8.84396 12.1695 9.41935C11.5941 9.99475 10.8137 10.318 9.99994 10.318C9.18621 10.318 8.40581 9.99475 7.83041 9.41935C7.25502 8.84396 6.93176 8.06355 6.93176 7.24982C6.93176 6.43609 7.25502 5.65569 7.83041 5.08029C8.40581 4.50489 9.18621 4.18164 9.99994 4.18164C10.8137 4.18164 11.5941 4.50489 12.1695 5.08029C12.7449 5.65569 13.0681 6.43609 13.0681 7.24982V7.24982Z" fill="#868587"/>
<path d="M0.181763 7.25C0.181763 7.25 3.86358 0.5 9.99994 0.5C16.1363 0.5 19.8181 7.25 19.8181 7.25C19.8181 7.25 16.1363 14 9.99994 14C3.86358 14 0.181763 7.25 0.181763 7.25ZM9.99994 11.5455C11.1392 11.5455 12.2317 11.0929 13.0373 10.2873C13.8428 9.48179 14.2954 8.38923 14.2954 7.25C14.2954 6.11077 13.8428 5.01821 13.0373 4.21266C12.2317 3.4071 11.1392 2.95455 9.99994 2.95455C8.86072 2.95455 7.76815 3.4071 6.9626 4.21266C6.15705 5.01821 5.70449 6.11077 5.70449 7.25C5.70449 8.38923 6.15705 9.48179 6.9626 10.2873C7.76815 11.0929 8.86072 11.5455 9.99994 11.5455V11.5455Z" fill="#868587"/>
</svg>
