<svg width="20" height="14" viewBox="0 0 20 14" fill="none" xmlns="http://www.w3.org/2000/svg">
<path d="M12.8864 6.74982C12.8864 7.56355 12.5631 8.34396 11.9877 8.91935C11.4123 9.49475 10.6319 9.818 9.81818 9.818C9.00445 9.818 8.22405 9.49475 7.64865 8.91935C7.07325 8.34396 6.75 7.56355 6.75 6.74982C6.75 5.93609 7.07325 5.15569 7.64865 4.58029C8.22405 4.00489 9.00445 3.68164 9.81818 3.68164C10.6319 3.68164 11.4123 4.00489 11.9877 4.58029C12.5631 5.15569 12.8864 5.93609 12.8864 6.74982V6.74982Z" fill="white"/>
<path d="M0 6.75C0 6.75 3.68182 0 9.81818 0C15.9545 0 19.6364 6.75 19.6364 6.75C19.6364 6.75 15.9545 13.5 9.81818 13.5C3.68182 13.5 0 6.75 0 6.75ZM9.81818 11.0455C10.9574 11.0455 12.05 10.5929 12.8555 9.78734C13.6611 8.98179 14.1136 7.88923 14.1136 6.75C14.1136 5.61077 13.6611 4.51821 12.8555 3.71266C12.05 2.9071 10.9574 2.45455 9.81818 2.45455C8.67896 2.45455 7.58639 2.9071 6.78084 3.71266C5.97528 4.51821 5.52273 5.61077 5.52273 6.75C5.52273 7.88923 5.97528 8.98179 6.78084 9.78734C7.58639 10.5929 8.67896 11.0455 9.81818 11.0455V11.0455Z" fill="white"/>
</svg>
