<svg width="60" height="60" viewBox="0 0 60 60" fill="none" xmlns="http://www.w3.org/2000/svg">
<rect width="60" height="60" rx="30" fill="#6D24A5"/>
<path d="M41.08 19H19.92C19.4111 19 19 19.4111 19 19.92V41.08C19 41.5889 19.4111 42 19.92 42H41.08C41.5889 42 42 41.5889 42 41.08V19.92C42 19.4111 41.5889 19 41.08 19ZM38.4235 25.7131H36.5864C35.146 25.7131 34.8671 26.3974 34.8671 27.4036V29.6202H38.3056L37.8571 33.0904H34.8671V42H31.282V33.0933H28.2834V29.6202H31.282V27.0615C31.282 24.0916 33.0961 22.473 35.7469 22.473C37.0176 22.473 38.1073 22.5679 38.4264 22.611V25.7131H38.4235Z" fill="white"/>
</svg>
