<svg width="74" height="23" viewBox="0 0 74 23" fill="none" xmlns="http://www.w3.org/2000/svg">
<path d="M18.6094 4.85938H6.39062C6.09678 4.85938 5.85938 5.09678 5.85938 5.39062V17.6094C5.85938 17.9032 6.09678 18.1406 6.39062 18.1406H18.6094C18.9032 18.1406 19.1406 17.9032 19.1406 17.6094V5.39062C19.1406 5.09678 18.9032 4.85938 18.6094 4.85938ZM17.0754 8.73584H16.0146C15.1828 8.73584 15.0218 9.13096 15.0218 9.71201V10.992H17.0073L16.7483 12.9958H15.0218V18.1406H12.9516V12.9975H11.22V10.992H12.9516V9.51445C12.9516 7.79951 13.9991 6.86484 15.5298 6.86484C16.2636 6.86484 16.8928 6.91963 17.0771 6.94453V8.73584H17.0754Z" fill="white"/>
<path d="M23.799 15.5V8.22727H28.3089V9.17188H24.8963V11.3878H27.9858V12.3288H24.8963V15.5H23.799ZM31.141 15.6207C30.7953 15.6207 30.4828 15.5568 30.2035 15.429C29.9241 15.2988 29.7028 15.1106 29.5394 14.8643C29.3784 14.6181 29.2979 14.3163 29.2979 13.9588C29.2979 13.651 29.3571 13.3977 29.4755 13.1989C29.5939 13 29.7537 12.8426 29.9549 12.7266C30.1561 12.6106 30.381 12.523 30.6296 12.4638C30.8782 12.4046 31.1315 12.3596 31.3896 12.3288C31.7163 12.291 31.9814 12.2602 32.185 12.2365C32.3886 12.2105 32.5366 12.169 32.6289 12.1122C32.7212 12.0554 32.7674 11.9631 32.7674 11.8352V11.8104C32.7674 11.5002 32.6798 11.2599 32.5046 11.0895C32.3318 10.919 32.0737 10.8338 31.7305 10.8338C31.373 10.8338 31.0913 10.9131 30.8853 11.0717C30.6817 11.228 30.5408 11.402 30.4627 11.5938L29.4648 11.3665C29.5832 11.035 29.756 10.7675 29.9833 10.5639C30.2129 10.358 30.4769 10.2088 30.7752 10.1165C31.0735 10.0218 31.3872 9.97443 31.7163 9.97443C31.9341 9.97443 32.1649 10.0005 32.4087 10.0526C32.6549 10.1023 32.8846 10.1946 33.0977 10.3295C33.3131 10.4645 33.4895 10.6574 33.6268 10.9084C33.7641 11.157 33.8327 11.4801 33.8327 11.8778V15.5H32.7958V14.7543H32.7532C32.6845 14.8916 32.5816 15.0265 32.4442 15.1591C32.3069 15.2917 32.1306 15.4018 31.9151 15.4893C31.6997 15.5769 31.4416 15.6207 31.141 15.6207ZM31.3718 14.7685C31.6654 14.7685 31.9163 14.7105 32.1246 14.5945C32.3353 14.4785 32.4951 14.3269 32.604 14.1399C32.7153 13.9505 32.771 13.7481 32.771 13.5327V12.8295C32.7331 12.8674 32.6597 12.9029 32.5508 12.9361C32.4442 12.9669 32.3223 12.9941 32.185 13.0178C32.0477 13.0391 31.9139 13.0592 31.7837 13.0781C31.6535 13.0947 31.5446 13.1089 31.457 13.1207C31.2511 13.1468 31.0629 13.1906 30.8924 13.2521C30.7243 13.3137 30.5894 13.4025 30.4876 13.5185C30.3881 13.6321 30.3384 13.7836 30.3384 13.973C30.3384 14.2358 30.4355 14.4347 30.6296 14.5696C30.8237 14.7022 31.0711 14.7685 31.3718 14.7685ZM37.5446 15.6101C37.0166 15.6101 36.5621 15.4905 36.1809 15.2514C35.8021 15.0099 35.5109 14.6773 35.3074 14.2536C35.1038 13.8298 35.002 13.3445 35.002 12.7976C35.002 12.2436 35.1061 11.7547 35.3145 11.331C35.5228 10.9048 35.8163 10.5722 36.1951 10.3331C36.5739 10.094 37.0202 9.97443 37.5339 9.97443C37.9482 9.97443 38.3175 10.0514 38.6419 10.2053C38.9662 10.3568 39.2278 10.5698 39.4267 10.8445C39.6279 11.1191 39.7475 11.4399 39.7853 11.8068H38.752C38.6951 11.5511 38.5649 11.331 38.3613 11.1463C38.1601 10.9616 37.8902 10.8693 37.5517 10.8693C37.2557 10.8693 36.9965 10.9474 36.774 11.1037C36.5538 11.2576 36.3822 11.4777 36.2591 11.7642C36.1359 12.0483 36.0744 12.3845 36.0744 12.7727C36.0744 13.1705 36.1348 13.5137 36.2555 13.8026C36.3762 14.0914 36.5467 14.3151 36.7669 14.4737C36.9894 14.6323 37.251 14.7116 37.5517 14.7116C37.7529 14.7116 37.9352 14.675 38.0985 14.6016C38.2643 14.5258 38.4028 14.4181 38.514 14.2784C38.6277 14.1387 38.707 13.9706 38.752 13.7741H39.7853C39.7475 14.1269 39.6326 14.4418 39.4409 14.7188C39.2491 14.9957 38.9922 15.2135 38.6703 15.3722C38.3507 15.5308 37.9754 15.6101 37.5446 15.6101ZM43.2717 15.6101C42.7343 15.6101 42.2714 15.4953 41.8832 15.2656C41.4973 15.0336 41.199 14.7081 40.9883 14.2891C40.7799 13.8677 40.6758 13.3741 40.6758 12.8082C40.6758 12.2495 40.7799 11.7571 40.9883 11.331C41.199 10.9048 41.4925 10.5722 41.869 10.3331C42.2478 10.094 42.6905 9.97443 43.1971 9.97443C43.5049 9.97443 43.8031 10.0253 44.092 10.1271C44.3808 10.2289 44.64 10.3887 44.8697 10.6065C45.0993 10.8243 45.2804 11.1072 45.413 11.4553C45.5456 11.8009 45.6119 12.2211 45.6119 12.7159V13.0923H41.2759V12.2969H44.5714C44.5714 12.0175 44.5146 11.7701 44.4009 11.5547C44.2873 11.3369 44.1275 11.1652 43.9215 11.0398C43.7179 10.9143 43.4788 10.8516 43.2042 10.8516C42.9059 10.8516 42.6455 10.925 42.4229 11.0717C42.2028 11.2161 42.0323 11.4055 41.9116 11.6399C41.7932 11.8719 41.734 12.1241 41.734 12.3963V13.0178C41.734 13.3823 41.7979 13.6925 41.9258 13.9482C42.056 14.2038 42.2371 14.3991 42.4691 14.5341C42.7011 14.6667 42.9722 14.733 43.2823 14.733C43.4835 14.733 43.667 14.7045 43.8327 14.6477C43.9985 14.5885 44.1417 14.5009 44.2624 14.3849C44.3832 14.2689 44.4755 14.1257 44.5394 13.9553L45.5444 14.1364C45.4639 14.4323 45.3195 14.6915 45.1112 14.9141C44.9052 15.1342 44.646 15.3059 44.3335 15.429C44.0233 15.5497 43.6694 15.6101 43.2717 15.6101ZM46.8752 15.5V8.22727H47.937V10.9297H48.0009C48.0624 10.8161 48.1512 10.6847 48.2672 10.5355C48.3832 10.3864 48.5442 10.2562 48.7502 10.1449C48.9561 10.0312 49.2284 9.97443 49.5669 9.97443C50.0073 9.97443 50.4003 10.0857 50.7459 10.3082C51.0916 10.5308 51.3626 10.8516 51.5591 11.2706C51.758 11.6896 51.8574 12.1939 51.8574 12.7834C51.8574 13.3729 51.7592 13.8783 51.5627 14.2997C51.3662 14.7187 51.0963 15.0419 50.753 15.2692C50.4097 15.4941 50.0179 15.6065 49.5776 15.6065C49.2462 15.6065 48.9751 15.5509 48.7644 15.4396C48.556 15.3284 48.3927 15.1982 48.2743 15.049C48.156 14.8999 48.0648 14.7673 48.0009 14.6513H47.9121V15.5H46.8752ZM47.9157 12.7727C47.9157 13.1562 47.9713 13.4924 48.0826 13.7812C48.1938 14.0701 48.3548 14.2962 48.5655 14.4595C48.7762 14.6205 49.0343 14.701 49.3397 14.701C49.6569 14.701 49.9221 14.617 50.1351 14.4489C50.3482 14.2784 50.5092 14.0476 50.6181 13.7564C50.7293 13.4652 50.785 13.1373 50.785 12.7727C50.785 12.4129 50.7305 12.0897 50.6216 11.8033C50.5151 11.5168 50.3541 11.2907 50.1387 11.125C49.9256 10.9593 49.6593 10.8764 49.3397 10.8764C49.0319 10.8764 48.7715 10.9557 48.5584 11.1143C48.3477 11.273 48.1879 11.4943 48.079 11.7784C47.9701 12.0625 47.9157 12.3939 47.9157 12.7727ZM55.3473 15.6101C54.8359 15.6101 54.3897 15.4929 54.0085 15.2585C53.6274 15.0241 53.3314 14.6963 53.1207 14.2749C52.91 13.8535 52.8047 13.361 52.8047 12.7976C52.8047 12.2318 52.91 11.737 53.1207 11.3132C53.3314 10.8894 53.6274 10.5604 54.0085 10.326C54.3897 10.0916 54.8359 9.97443 55.3473 9.97443C55.8587 9.97443 56.3049 10.0916 56.6861 10.326C57.0672 10.5604 57.3632 10.8894 57.5739 11.3132C57.7846 11.737 57.8899 12.2318 57.8899 12.7976C57.8899 13.361 57.7846 13.8535 57.5739 14.2749C57.3632 14.6963 57.0672 15.0241 56.6861 15.2585C56.3049 15.4929 55.8587 15.6101 55.3473 15.6101ZM55.3509 14.7188C55.6823 14.7188 55.9569 14.6312 56.1747 14.456C56.3925 14.2808 56.5535 14.0476 56.6577 13.7564C56.7642 13.4652 56.8175 13.1444 56.8175 12.794C56.8175 12.446 56.7642 12.1264 56.6577 11.8352C56.5535 11.5417 56.3925 11.3061 56.1747 11.1286C55.9569 10.951 55.6823 10.8622 55.3509 10.8622C55.017 10.8622 54.7401 10.951 54.5199 11.1286C54.3021 11.3061 54.1399 11.5417 54.0334 11.8352C53.9292 12.1264 53.8771 12.446 53.8771 12.794C53.8771 13.1444 53.9292 13.4652 54.0334 13.7564C54.1399 14.0476 54.3021 14.2808 54.5199 14.456C54.7401 14.6312 55.017 14.7188 55.3509 14.7188ZM61.3727 15.6101C60.8613 15.6101 60.4151 15.4929 60.0339 15.2585C59.6528 15.0241 59.3568 14.6963 59.1461 14.2749C58.9354 13.8535 58.8301 13.361 58.8301 12.7976C58.8301 12.2318 58.9354 11.737 59.1461 11.3132C59.3568 10.8894 59.6528 10.5604 60.0339 10.326C60.4151 10.0916 60.8613 9.97443 61.3727 9.97443C61.8841 9.97443 62.3303 10.0916 62.7115 10.326C63.0926 10.5604 63.3886 10.8894 63.5993 11.3132C63.81 11.737 63.9153 12.2318 63.9153 12.7976C63.9153 13.361 63.81 13.8535 63.5993 14.2749C63.3886 14.6963 63.0926 15.0241 62.7115 15.2585C62.3303 15.4929 61.8841 15.6101 61.3727 15.6101ZM61.3762 14.7188C61.7077 14.7188 61.9823 14.6312 62.2001 14.456C62.4179 14.2808 62.5789 14.0476 62.6831 13.7564C62.7896 13.4652 62.8429 13.1444 62.8429 12.794C62.8429 12.446 62.7896 12.1264 62.6831 11.8352C62.5789 11.5417 62.4179 11.3061 62.2001 11.1286C61.9823 10.951 61.7077 10.8622 61.3762 10.8622C61.0424 10.8622 60.7654 10.951 60.5453 11.1286C60.3275 11.3061 60.1653 11.5417 60.0588 11.8352C59.9546 12.1264 59.9025 12.446 59.9025 12.794C59.9025 13.1444 59.9546 13.4652 60.0588 13.7564C60.1653 14.0476 60.3275 14.2808 60.5453 14.456C60.7654 14.6312 61.0424 14.7188 61.3762 14.7188ZM66.0771 13.6499L66.07 12.3537H66.2546L68.4279 10.0455H69.6992L67.2205 12.6733H67.0536L66.0771 13.6499ZM65.1005 15.5V8.22727H66.1623V15.5H65.1005ZM68.5451 15.5L66.592 12.9077L67.3235 12.1655L69.8484 15.5H68.5451Z" fill="white"/>
<rect x="0.5" y="0.5" width="73" height="22" stroke="white"/>
</svg>
