<svg width="1512" height="88" viewBox="0 0 1512 88" fill="none" xmlns="http://www.w3.org/2000/svg">
<rect width="1512" height="64" transform="translate(0 24)" fill="#6D24A5"/>
<path d="M1464 49H1465V50C1465 50.2652 1465.11 50.5196 1465.29 50.7071C1465.48 50.8947 1465.73 51 1466 51C1466.27 51 1466.52 50.8947 1466.71 50.7071C1466.89 50.5196 1467 50.2652 1467 50V49H1468C1468.27 49 1468.52 48.8947 1468.71 48.7071C1468.89 48.5196 1469 48.2652 1469 48C1469 47.7348 1468.89 47.4805 1468.71 47.2929C1468.52 47.1054 1468.27 47 1468 47H1467V46C1467 45.7348 1466.89 45.4805 1466.71 45.2929C1466.52 45.1054 1466.27 45 1466 45C1465.73 45 1465.48 45.1054 1465.29 45.2929C1465.11 45.4805 1465 45.7348 1465 46V47H1464C1463.73 47 1463.48 47.1054 1463.29 47.2929C1463.11 47.4805 1463 47.7348 1463 48C1463 48.2652 1463.11 48.5196 1463.29 48.7071C1463.48 48.8947 1463.73 49 1464 49ZM1453 51V61C1453 61.2652 1453.11 61.5196 1453.29 61.7071C1453.48 61.8947 1453.73 62 1454 62C1454.27 62 1454.52 61.8947 1454.71 61.7071C1454.89 61.5196 1455 61.2652 1455 61V51C1455 50.7348 1454.89 50.4805 1454.71 50.2929C1454.52 50.1054 1454.27 50 1454 50C1453.73 50 1453.48 50.1054 1453.29 50.2929C1453.11 50.4805 1453 50.7348 1453 51ZM1467.6 53C1467.47 53.0263 1467.35 53.0776 1467.24 53.1511C1467.13 53.2246 1467.04 53.3189 1466.97 53.4284C1466.89 53.538 1466.84 53.6608 1466.82 53.7897C1466.79 53.9187 1466.79 54.0513 1466.82 54.18C1467.21 56.0762 1466.98 58.0478 1466.16 59.8021C1465.34 61.5563 1463.98 62.9997 1462.27 63.9181C1460.57 64.8364 1458.61 65.1807 1456.7 64.8999C1454.78 64.619 1453.01 63.728 1451.64 62.3591C1450.27 60.9901 1449.38 59.2162 1449.1 57.3007C1448.82 55.3852 1449.16 53.4302 1450.08 51.7259C1451 50.0216 1452.44 48.6588 1454.2 47.8399C1455.95 47.021 1457.92 46.7896 1459.82 47.18C1460.09 47.2331 1460.36 47.1786 1460.59 47.0286C1460.81 46.8785 1460.97 46.6452 1461.02 46.38C1461.07 46.1148 1461.02 45.8394 1460.87 45.6143C1460.72 45.3893 1460.49 45.2331 1460.22 45.18C1459.49 45.0437 1458.74 44.9834 1458 45C1455.82 45 1453.7 45.6452 1451.89 46.8539C1450.08 48.0626 1448.67 49.7805 1447.84 51.7905C1447 53.8005 1446.79 56.0122 1447.21 58.146C1447.64 60.2798 1448.68 62.2398 1450.22 63.7782C1451.76 65.3166 1453.72 66.3642 1455.85 66.7887C1457.99 67.2131 1460.2 66.9953 1462.21 66.1627C1464.22 65.3301 1465.94 63.9202 1467.15 62.1113C1468.35 60.3024 1469 58.1756 1469 56C1469 55.2611 1468.93 54.5239 1468.78 53.8C1468.76 53.6695 1468.71 53.5451 1468.63 53.434C1468.56 53.3229 1468.47 53.2273 1468.36 53.1528C1468.25 53.0784 1468.12 53.0265 1467.99 53.0003C1467.86 52.974 1467.73 52.974 1467.6 53ZM1457 53V54C1457 54.7401 1457.28 55.4524 1457.78 56C1457.28 56.5477 1457 57.26 1457 58V59C1457 59.7957 1457.32 60.5587 1457.88 61.1213C1458.44 61.684 1459.2 62 1460 62H1461C1461.8 62 1462.56 61.684 1463.12 61.1213C1463.68 60.5587 1464 59.7957 1464 59V58C1464 57.26 1463.72 56.5477 1463.22 56C1463.72 55.4524 1464 54.7401 1464 54V53C1464 52.2044 1463.68 51.4413 1463.12 50.8787C1462.56 50.3161 1461.8 50 1461 50H1460C1459.2 50 1458.44 50.3161 1457.88 50.8787C1457.32 51.4413 1457 52.2044 1457 53ZM1462 59C1462 59.2652 1461.89 59.5196 1461.71 59.7071C1461.52 59.8947 1461.27 60 1461 60H1460C1459.73 60 1459.48 59.8947 1459.29 59.7071C1459.11 59.5196 1459 59.2652 1459 59V58C1459 57.7348 1459.11 57.4805 1459.29 57.2929C1459.48 57.1054 1459.73 57 1460 57H1461C1461.27 57 1461.52 57.1054 1461.71 57.2929C1461.89 57.4805 1462 57.7348 1462 58V59ZM1462 53V54C1462 54.2652 1461.89 54.5196 1461.71 54.7071C1461.52 54.8947 1461.27 55 1461 55H1460C1459.73 55 1459.48 54.8947 1459.29 54.7071C1459.11 54.5196 1459 54.2652 1459 54V53C1459 52.7348 1459.11 52.4805 1459.29 52.2929C1459.48 52.1054 1459.73 52 1460 52H1461C1461.27 52 1461.52 52.1054 1461.71 52.2929C1461.89 52.4805 1462 52.7348 1462 53Z" fill="white"/>
<rect width="1512" height="3" transform="translate(0 18)" fill="#6D24A5"/>
</svg>
