<svg width="74" height="23" viewBox="0 0 74 23" fill="none" xmlns="http://www.w3.org/2000/svg">
<path fill-rule="evenodd" clip-rule="evenodd" d="M8.66563 4.66625C9.39875 4.6325 9.6325 4.625 11.5 4.625C13.3675 4.625 13.6013 4.63312 14.3337 4.66625C15.0662 4.69937 15.5662 4.81625 16.0037 4.98563C16.4619 5.15875 16.8775 5.42937 17.2212 5.77937C17.5712 6.1225 17.8413 6.5375 18.0138 6.99625C18.1838 7.43375 18.3 7.93375 18.3337 8.665C18.3675 9.39937 18.375 9.63312 18.375 11.5C18.375 13.3675 18.3669 13.6012 18.3337 14.3344C18.3006 15.0656 18.1838 15.5656 18.0138 16.0031C17.8412 16.4619 17.5708 16.8776 17.2212 17.2212C16.8775 17.5712 16.4619 17.8413 16.0037 18.0138C15.5662 18.1838 15.0662 18.3 14.335 18.3337C13.6012 18.3675 13.3675 18.375 11.5 18.375C9.6325 18.375 9.39875 18.3669 8.66563 18.3337C7.93438 18.3006 7.43438 18.1838 6.99688 18.0138C6.53808 17.8412 6.12239 17.5708 5.77875 17.2212C5.42899 16.8779 5.15832 16.4624 4.98563 16.0037C4.81625 15.5662 4.7 15.0662 4.66625 14.335C4.6325 13.6006 4.625 13.3669 4.625 11.5C4.625 9.6325 4.63312 9.39875 4.66625 8.66625C4.69937 7.93375 4.81625 7.43375 4.98563 6.99625C5.15858 6.53755 5.42945 6.12207 5.77937 5.77875C6.12253 5.42906 6.5378 5.1584 6.99625 4.98563C7.43375 4.81625 7.93375 4.7 8.665 4.66625H8.66563ZM14.2781 5.90375C13.5531 5.87063 13.3356 5.86375 11.5 5.86375C9.66437 5.86375 9.44688 5.87063 8.72187 5.90375C8.05125 5.93438 7.6875 6.04625 7.445 6.14062C7.12438 6.26562 6.895 6.41375 6.65438 6.65438C6.42628 6.87628 6.25074 7.14643 6.14062 7.445C6.04625 7.6875 5.93438 8.05125 5.90375 8.72187C5.87063 9.44688 5.86375 9.66437 5.86375 11.5C5.86375 13.3356 5.87063 13.5531 5.90375 14.2781C5.93438 14.9487 6.04625 15.3125 6.14062 15.555C6.25063 15.8531 6.42625 16.1237 6.65438 16.3456C6.87625 16.5738 7.14688 16.7494 7.445 16.8594C7.6875 16.9538 8.05125 17.0656 8.72187 17.0963C9.44688 17.1294 9.66375 17.1362 11.5 17.1362C13.3363 17.1362 13.5531 17.1294 14.2781 17.0963C14.9487 17.0656 15.3125 16.9538 15.555 16.8594C15.8756 16.7344 16.105 16.5863 16.3456 16.3456C16.5738 16.1237 16.7494 15.8531 16.8594 15.555C16.9538 15.3125 17.0656 14.9487 17.0963 14.2781C17.1294 13.5531 17.1362 13.3356 17.1362 11.5C17.1362 9.66437 17.1294 9.44688 17.0963 8.72187C17.0656 8.05125 16.9538 7.6875 16.8594 7.445C16.7344 7.12438 16.5863 6.895 16.3456 6.65438C16.1237 6.42629 15.8536 6.25076 15.555 6.14062C15.3125 6.04625 14.9487 5.93438 14.2781 5.90375ZM10.6219 13.6194C11.1123 13.8235 11.6584 13.8511 12.1668 13.6973C12.6753 13.5436 13.1146 13.2181 13.4098 12.7764C13.7049 12.3347 13.8375 11.8043 13.785 11.2757C13.7325 10.7471 13.4981 10.2531 13.1219 9.87812C12.882 9.63842 12.592 9.45488 12.2727 9.34072C11.9534 9.22655 11.6128 9.1846 11.2753 9.21789C10.9379 9.25117 10.612 9.35886 10.3211 9.53321C10.0303 9.70755 9.78171 9.94422 9.59331 10.2262C9.40491 10.5081 9.28137 10.8283 9.23157 11.1637C9.18178 11.4991 9.20697 11.8414 9.30534 12.1659C9.40371 12.4905 9.5728 12.7891 9.80045 13.0405C10.0281 13.2918 10.3086 13.4895 10.6219 13.6194ZM9.00125 9.00125C9.32939 8.67311 9.71895 8.41281 10.1477 8.23523C10.5764 8.05764 11.0359 7.96623 11.5 7.96623C11.9641 7.96623 12.4236 8.05764 12.8523 8.23523C13.281 8.41281 13.6706 8.67311 13.9987 9.00125C14.3269 9.32939 14.5872 9.71895 14.7648 10.1477C14.9424 10.5764 15.0338 11.0359 15.0338 11.5C15.0338 11.9641 14.9424 12.4236 14.7648 12.8523C14.5872 13.281 14.3269 13.6706 13.9987 13.9987C13.336 14.6615 12.4372 15.0338 11.5 15.0338C10.5628 15.0338 9.66396 14.6615 9.00125 13.9987C8.33854 13.336 7.96623 12.4372 7.96623 11.5C7.96623 10.5628 8.33854 9.66396 9.00125 9.00125ZM15.8175 8.4925C15.8988 8.41579 15.9639 8.32355 16.0089 8.22123C16.054 8.11892 16.078 8.00861 16.0796 7.89683C16.0813 7.78506 16.0605 7.67409 16.0184 7.57051C15.9764 7.46692 15.914 7.37282 15.835 7.29377C15.7559 7.21473 15.6618 7.15235 15.5582 7.11032C15.4547 7.0683 15.3437 7.04748 15.2319 7.04911C15.1201 7.05074 15.0098 7.07478 14.9075 7.11981C14.8052 7.16484 14.713 7.22993 14.6362 7.31125C14.4871 7.46939 14.4054 7.67945 14.4086 7.89683C14.4117 8.11421 14.4995 8.3218 14.6532 8.47553C14.807 8.62925 15.0145 8.71702 15.2319 8.72019C15.4493 8.72336 15.6594 8.64168 15.8175 8.4925Z" fill="white"/>
<path d="M23.8963 8.22727V15.5H22.799V8.22727H23.8963ZM26.4709 12.2614V15.5H25.4091V10.0455H26.4283V10.9332H26.4957C26.6212 10.6444 26.8177 10.4124 27.0852 10.2372C27.3551 10.062 27.6948 9.97443 28.1044 9.97443C28.4761 9.97443 28.8016 10.0526 29.081 10.2088C29.3603 10.3627 29.5769 10.5923 29.7308 10.8977C29.8847 11.2031 29.9616 11.5807 29.9616 12.0305V15.5H28.8999V12.1584C28.8999 11.763 28.7969 11.4541 28.5909 11.2315C28.3849 11.0066 28.102 10.8942 27.7422 10.8942C27.496 10.8942 27.277 10.9474 27.0852 11.054C26.8958 11.1605 26.7455 11.3168 26.6342 11.5227C26.5253 11.7263 26.4709 11.9725 26.4709 12.2614ZM35.473 11.3771L34.5107 11.5476C34.4704 11.4245 34.4065 11.3073 34.3189 11.196C34.2337 11.0848 34.1177 10.9936 33.9709 10.9226C33.8241 10.8516 33.6406 10.8161 33.4205 10.8161C33.1198 10.8161 32.8688 10.8835 32.6676 11.0185C32.4664 11.151 32.3658 11.3227 32.3658 11.5334C32.3658 11.7157 32.4332 11.8625 32.5682 11.9737C32.7031 12.085 32.9209 12.1761 33.2216 12.2472L34.0881 12.446C34.59 12.562 34.964 12.7408 35.2102 12.9822C35.4564 13.2237 35.5795 13.5374 35.5795 13.9233C35.5795 14.25 35.4848 14.5412 35.2955 14.7969C35.1084 15.0502 34.8468 15.2491 34.5107 15.3935C34.1768 15.5379 33.7898 15.6101 33.3494 15.6101C32.7386 15.6101 32.2403 15.4799 31.8544 15.2195C31.4685 14.9567 31.2318 14.5838 31.1442 14.1009L32.1705 13.9446C32.2344 14.2121 32.3658 14.4145 32.5646 14.5518C32.7635 14.6868 33.0227 14.7543 33.3423 14.7543C33.6903 14.7543 33.9685 14.6821 34.1768 14.5376C34.3852 14.3909 34.4893 14.2121 34.4893 14.0014C34.4893 13.831 34.4254 13.6877 34.2976 13.5717C34.1721 13.4557 33.9792 13.3681 33.7188 13.3089L32.7955 13.1065C32.2865 12.9905 31.91 12.8059 31.6662 12.5526C31.4247 12.2992 31.304 11.9785 31.304 11.5902C31.304 11.2682 31.3939 10.9865 31.5739 10.745C31.7538 10.5036 32.0024 10.3153 32.3196 10.1804C32.6368 10.0431 33.0002 9.97443 33.4098 9.97443C33.9993 9.97443 34.4633 10.1023 34.8018 10.358C35.1404 10.6113 35.3641 10.951 35.473 11.3771ZM39.2931 10.0455V10.8977H36.3137V10.0455H39.2931ZM37.1127 8.73864H38.1745V13.8984C38.1745 14.1044 38.2053 14.2595 38.2669 14.3636C38.3284 14.4654 38.4077 14.5353 38.5048 14.5732C38.6042 14.6087 38.7119 14.6264 38.8279 14.6264C38.9132 14.6264 38.9877 14.6205 39.0517 14.6087C39.1156 14.5968 39.1653 14.5874 39.2008 14.5803L39.3926 15.4574C39.331 15.4811 39.2434 15.5047 39.1298 15.5284C39.0162 15.5545 38.8741 15.5687 38.7037 15.571C38.4243 15.5758 38.1639 15.526 37.9224 15.4219C37.6809 15.3177 37.4856 15.1567 37.3365 14.9389C37.1873 14.7211 37.1127 14.4477 37.1127 14.1186V8.73864ZM42.055 15.6207C41.7094 15.6207 41.3969 15.5568 41.1175 15.429C40.8382 15.2988 40.6168 15.1106 40.4535 14.8643C40.2925 14.6181 40.212 14.3163 40.212 13.9588C40.212 13.651 40.2712 13.3977 40.3896 13.1989C40.5079 13 40.6677 12.8426 40.869 12.7266C41.0702 12.6106 41.2951 12.523 41.5437 12.4638C41.7923 12.4046 42.0456 12.3596 42.3036 12.3288C42.6303 12.291 42.8955 12.2602 43.0991 12.2365C43.3027 12.2105 43.4506 12.169 43.543 12.1122C43.6353 12.0554 43.6815 11.9631 43.6815 11.8352V11.8104C43.6815 11.5002 43.5939 11.2599 43.4187 11.0895C43.2459 10.919 42.9878 10.8338 42.6445 10.8338C42.2871 10.8338 42.0053 10.9131 41.7994 11.0717C41.5958 11.228 41.4549 11.402 41.3768 11.5938L40.3789 11.3665C40.4973 11.035 40.6701 10.7675 40.8974 10.5639C41.127 10.358 41.391 10.2088 41.6893 10.1165C41.9876 10.0218 42.3013 9.97443 42.6303 9.97443C42.8481 9.97443 43.079 10.0005 43.3228 10.0526C43.569 10.1023 43.7987 10.1946 44.0117 10.3295C44.2272 10.4645 44.4035 10.6574 44.5408 10.9084C44.6781 11.157 44.7468 11.4801 44.7468 11.8778V15.5H43.7099V14.7543H43.6673C43.5986 14.8916 43.4956 15.0265 43.3583 15.1591C43.221 15.2917 43.0446 15.4018 42.8292 15.4893C42.6138 15.5769 42.3557 15.6207 42.055 15.6207ZM42.2859 14.7685C42.5794 14.7685 42.8304 14.7105 43.0387 14.5945C43.2494 14.4785 43.4092 14.3269 43.5181 14.1399C43.6294 13.9505 43.685 13.7481 43.685 13.5327V12.8295C43.6471 12.8674 43.5737 12.9029 43.4648 12.9361C43.3583 12.9669 43.2364 12.9941 43.0991 13.0178C42.9618 13.0391 42.828 13.0592 42.6978 13.0781C42.5676 13.0947 42.4587 13.1089 42.3711 13.1207C42.1651 13.1468 41.9769 13.1906 41.8065 13.2521C41.6384 13.3137 41.5034 13.4025 41.4016 13.5185C41.3022 13.6321 41.2525 13.7836 41.2525 13.973C41.2525 14.2358 41.3496 14.4347 41.5437 14.5696C41.7378 14.7022 41.9852 14.7685 42.2859 14.7685ZM48.448 17.6591C48.0147 17.6591 47.6419 17.6023 47.3294 17.4886C47.0192 17.375 46.7659 17.2247 46.5694 17.0376C46.3729 16.8506 46.2261 16.6458 46.1291 16.4233L47.0417 16.0469C47.1056 16.151 47.1909 16.2611 47.2974 16.3771C47.4063 16.4955 47.5531 16.5961 47.7377 16.679C47.9248 16.7618 48.1651 16.8033 48.4586 16.8033C48.8611 16.8033 49.1937 16.705 49.4565 16.5085C49.7193 16.3144 49.8507 16.0043 49.8507 15.5781V14.5057H49.7832C49.7193 14.6217 49.627 14.7507 49.5062 14.8928C49.3878 15.0348 49.2245 15.1579 49.0162 15.2621C48.8078 15.3662 48.5368 15.4183 48.2029 15.4183C47.7721 15.4183 47.3838 15.3177 47.0382 15.1165C46.6949 14.9129 46.4226 14.6134 46.2214 14.218C46.0225 13.8203 45.9231 13.3314 45.9231 12.7514C45.9231 12.1714 46.0214 11.6742 46.2179 11.2599C46.4167 10.8456 46.689 10.5284 47.0346 10.3082C47.3803 10.0857 47.7721 9.97443 48.21 9.97443C48.5486 9.97443 48.822 10.0312 49.0304 10.1449C49.2387 10.2562 49.4009 10.3864 49.5169 10.5355C49.6352 10.6847 49.7264 10.8161 49.7903 10.9297H49.8684V10.0455H50.9089V15.6207C50.9089 16.0895 50.8 16.4742 50.5822 16.7749C50.3644 17.0755 50.0697 17.2981 49.698 17.4425C49.3287 17.5869 48.912 17.6591 48.448 17.6591ZM48.4373 14.5376C48.7427 14.5376 49.0008 14.4666 49.2115 14.3246C49.4245 14.1802 49.5855 13.9742 49.6944 13.7067C49.8057 13.4368 49.8613 13.1136 49.8613 12.7372C49.8613 12.3703 49.8069 12.0471 49.698 11.7678C49.5891 11.4884 49.4293 11.2706 49.2186 11.1143C49.0079 10.9557 48.7475 10.8764 48.4373 10.8764C48.1177 10.8764 47.8514 10.9593 47.6383 11.125C47.4252 11.2884 47.2643 11.5109 47.1554 11.7926C47.0488 12.0743 46.9956 12.3892 46.9956 12.7372C46.9956 13.0947 47.05 13.4084 47.1589 13.6783C47.2678 13.9482 47.4288 14.1589 47.6419 14.3104C47.8573 14.4619 48.1225 14.5376 48.4373 14.5376ZM52.3329 15.5V10.0455H53.3592V10.9119H53.416C53.5154 10.6184 53.6906 10.3875 53.9416 10.2195C54.1949 10.049 54.4814 9.96378 54.801 9.96378C54.8672 9.96378 54.9454 9.96615 55.0353 9.97088C55.1277 9.97562 55.1999 9.98153 55.252 9.98864V11.0043C55.2093 10.9924 55.1336 10.9794 55.0247 10.9652C54.9158 10.9486 54.8069 10.9403 54.698 10.9403C54.447 10.9403 54.2233 10.9936 54.0268 11.1001C53.8327 11.2043 53.6788 11.3499 53.5652 11.5369C53.4515 11.7216 53.3947 11.9323 53.3947 12.169V15.5H52.3329ZM57.7093 15.6207C57.3637 15.6207 57.0512 15.5568 56.7718 15.429C56.4925 15.2988 56.2711 15.1106 56.1078 14.8643C55.9468 14.6181 55.8663 14.3163 55.8663 13.9588C55.8663 13.651 55.9255 13.3977 56.0439 13.1989C56.1622 13 56.322 12.8426 56.5233 12.7266C56.7245 12.6106 56.9494 12.523 57.198 12.4638C57.4466 12.4046 57.6999 12.3596 57.9579 12.3288C58.2846 12.291 58.5498 12.2602 58.7534 12.2365C58.957 12.2105 59.1049 12.169 59.1973 12.1122C59.2896 12.0554 59.3358 11.9631 59.3358 11.8352V11.8104C59.3358 11.5002 59.2482 11.2599 59.073 11.0895C58.9002 10.919 58.6421 10.8338 58.2988 10.8338C57.9413 10.8338 57.6596 10.9131 57.4537 11.0717C57.2501 11.228 57.1092 11.402 57.0311 11.5938L56.0332 11.3665C56.1516 11.035 56.3244 10.7675 56.5517 10.5639C56.7813 10.358 57.0453 10.2088 57.3436 10.1165C57.6419 10.0218 57.9556 9.97443 58.2846 9.97443C58.5024 9.97443 58.7333 10.0005 58.9771 10.0526C59.2233 10.1023 59.4529 10.1946 59.666 10.3295C59.8815 10.4645 60.0578 10.6574 60.1951 10.9084C60.3324 11.157 60.4011 11.4801 60.4011 11.8778V15.5H59.3642V14.7543H59.3216C59.2529 14.8916 59.1499 15.0265 59.0126 15.1591C58.8753 15.2917 58.6989 15.4018 58.4835 15.4893C58.2681 15.5769 58.01 15.6207 57.7093 15.6207ZM57.9402 14.7685C58.2337 14.7685 58.4847 14.7105 58.693 14.5945C58.9037 14.4785 59.0635 14.3269 59.1724 14.1399C59.2837 13.9505 59.3393 13.7481 59.3393 13.5327V12.8295C59.3014 12.8674 59.228 12.9029 59.1191 12.9361C59.0126 12.9669 58.8907 12.9941 58.7534 13.0178C58.6161 13.0391 58.4823 13.0592 58.3521 13.0781C58.2219 13.0947 58.113 13.1089 58.0254 13.1207C57.8194 13.1468 57.6312 13.1906 57.4608 13.2521C57.2927 13.3137 57.1577 13.4025 57.0559 13.5185C56.9565 13.6321 56.9068 13.7836 56.9068 13.973C56.9068 14.2358 57.0038 14.4347 57.198 14.5696C57.3921 14.7022 57.6395 14.7685 57.9402 14.7685ZM61.8153 15.5V10.0455H62.8345V10.9332H62.902C63.0156 10.6326 63.2015 10.3982 63.4595 10.2301C63.7176 10.0597 64.0265 9.97443 64.3864 9.97443C64.7509 9.97443 65.0563 10.0597 65.3026 10.2301C65.5511 10.4006 65.7346 10.6349 65.853 10.9332H65.9098C66.04 10.642 66.2472 10.41 66.5312 10.2372C66.8153 10.062 67.1539 9.97443 67.5469 9.97443C68.0417 9.97443 68.4453 10.1295 68.7578 10.4396C69.0727 10.7498 69.2301 11.2173 69.2301 11.8423V15.5H68.1683V11.9418C68.1683 11.5724 68.0677 11.3049 67.8665 11.1392C67.6652 10.9735 67.425 10.8906 67.1456 10.8906C66.8 10.8906 66.5312 10.9972 66.3395 11.2102C66.1477 11.4209 66.0518 11.692 66.0518 12.0234V15.5H64.9936V11.8743C64.9936 11.5784 64.9013 11.3404 64.7166 11.1605C64.532 10.9806 64.2917 10.8906 63.9957 10.8906C63.7945 10.8906 63.6087 10.9439 63.4382 11.0504C63.2701 11.1546 63.134 11.3002 63.0298 11.4872C62.928 11.6742 62.8771 11.8909 62.8771 12.1371V15.5H61.8153Z" fill="white"/>
<rect x="0.5" y="0.5" width="73" height="22" stroke="white"/>
</svg>
