<svg width="52" height="53" viewBox="0 0 52 53" fill="none" xmlns="http://www.w3.org/2000/svg">
<g clip-path="url(#clip0_258_54)">
<path d="M26 0.5C11.642 0.5 0 12.142 0 26.5C0 40.858 11.642 52.5 26 52.5C40.358 52.5 52 40.858 52 26.5C52 12.142 40.358 0.5 26 0.5ZM34.3629 26.9004L21.6879 36.1223C21.6185 36.1723 21.5365 36.2021 21.4512 36.2085C21.3659 36.2149 21.2804 36.1977 21.2043 36.1587C21.1281 36.1197 21.0642 36.0605 21.0195 35.9875C20.9748 35.9145 20.951 35.8307 20.9509 35.7451V17.3129C20.9506 17.2272 20.9741 17.1431 21.0187 17.0698C21.0633 16.9966 21.1273 16.9372 21.2036 16.8981C21.28 16.8591 21.3656 16.8419 21.4511 16.8485C21.5366 16.8552 21.6186 16.8853 21.6879 16.9357L34.3629 26.1518C34.4228 26.1941 34.4717 26.2502 34.5054 26.3154C34.5391 26.3805 34.5567 26.4528 34.5567 26.5261C34.5567 26.5995 34.5391 26.6717 34.5054 26.7369C34.4717 26.802 34.4228 26.8581 34.3629 26.9004Z" fill="#3B115B"/>
</g>
<defs>
<clipPath id="clip0_258_54">
<rect width="52" height="52" fill="white" transform="translate(0 0.5)"/>
</clipPath>
</defs>
</svg>
