<svg width="23" height="21" viewBox="0 0 23 21" fill="none" xmlns="http://www.w3.org/2000/svg">
<path d="M17.129 13.5C19.271 13.5 21 15.175 21 17.25C21 19.325 19.271 21 17.129 21C14.9871 21 13.2581 19.325 13.2581 17.25C13.2581 16.95 13.2968 16.675 13.3742 16.3875L7.72258 13.5125C7.0129 14.275 6.00645 14.75 4.87097 14.75C2.72903 14.75 1 13.075 1 11C1 8.925 2.72903 7.25 4.87097 7.25C6.00645 7.25 7.0129 7.7375 7.72258 8.4875L13.3742 5.6125C13.2968 5.325 13.2581 5.05 13.2581 4.75C13.2581 2.675 14.9871 1 17.129 1C19.271 1 21 2.675 21 4.75C21 6.825 19.271 8.5 17.129 8.5C15.9935 8.5 14.9871 8.0125 14.2774 7.2625L8.62581 10.1375C8.78209 10.7025 8.78209 11.2975 8.62581 11.8625L14.2774 14.7375C14.9871 13.975 15.9935 13.5 17.129 13.5Z" fill="white"/>
</svg>
