<svg width="71" height="23" viewBox="0 0 71 23" fill="none" xmlns="http://www.w3.org/2000/svg">
<path d="M16.9156 6.32289L5.83437 10.596C5.07812 10.8998 5.0825 11.3216 5.69562 11.5098L8.54062 12.3973L15.1231 8.24414C15.4344 8.05477 15.7187 8.15664 15.485 8.36414L10.1519 13.1773H10.1506L10.1519 13.1779L9.95562 16.1104C10.2431 16.1104 10.37 15.9785 10.5312 15.8229L11.9131 14.4791L14.7875 16.6023C15.3175 16.8941 15.6981 16.7441 15.83 16.1116L17.7169 7.21914C17.91 6.44477 17.4212 6.09414 16.9156 6.32289Z" fill="white"/>
<path d="M22.4403 9.17188V8.22727H28.0689V9.17188H25.7997V15.5H24.706V9.17188H22.4403ZM30.7873 15.6101C30.2499 15.6101 29.7871 15.4953 29.3988 15.2656C29.0129 15.0336 28.7146 14.7081 28.5039 14.2891C28.2956 13.8677 28.1914 13.3741 28.1914 12.8082C28.1914 12.2495 28.2956 11.7571 28.5039 11.331C28.7146 10.9048 29.0082 10.5722 29.3846 10.3331C29.7634 10.094 30.2061 9.97443 30.7127 9.97443C31.0205 9.97443 31.3188 10.0253 31.6076 10.1271C31.8964 10.2289 32.1557 10.3887 32.3853 10.6065C32.6149 10.8243 32.796 11.1072 32.9286 11.4553C33.0612 11.8009 33.1275 12.2211 33.1275 12.7159V13.0923H28.7915V12.2969H32.087C32.087 12.0175 32.0302 11.7701 31.9165 11.5547C31.8029 11.3369 31.6431 11.1652 31.4371 11.0398C31.2335 10.9143 30.9944 10.8516 30.7198 10.8516C30.4215 10.8516 30.1611 10.925 29.9386 11.0717C29.7184 11.2161 29.5479 11.4055 29.4272 11.6399C29.3088 11.8719 29.2496 12.1241 29.2496 12.3963V13.0178C29.2496 13.3823 29.3136 13.6925 29.4414 13.9482C29.5716 14.2038 29.7527 14.3991 29.9847 14.5341C30.2167 14.6667 30.4878 14.733 30.7979 14.733C30.9992 14.733 31.1826 14.7045 31.3484 14.6477C31.5141 14.5885 31.6573 14.5009 31.7781 14.3849C31.8988 14.2689 31.9911 14.1257 32.055 13.9553L33.06 14.1364C32.9795 14.4323 32.8351 14.6915 32.6268 14.9141C32.4208 15.1342 32.1616 15.3059 31.8491 15.429C31.5389 15.5497 31.185 15.6101 30.7873 15.6101ZM35.3674 8.22727V15.5H34.3056V8.22727H35.3674ZM39.1467 15.6101C38.6093 15.6101 38.1464 15.4953 37.7582 15.2656C37.3723 15.0336 37.074 14.7081 36.8633 14.2891C36.6549 13.8677 36.5508 13.3741 36.5508 12.8082C36.5508 12.2495 36.6549 11.7571 36.8633 11.331C37.074 10.9048 37.3675 10.5722 37.744 10.3331C38.1228 10.094 38.5655 9.97443 39.0721 9.97443C39.3799 9.97443 39.6781 10.0253 39.967 10.1271C40.2558 10.2289 40.515 10.3887 40.7447 10.6065C40.9743 10.8243 41.1554 11.1072 41.288 11.4553C41.4206 11.8009 41.4869 12.2211 41.4869 12.7159V13.0923H37.1509V12.2969H40.4464C40.4464 12.0175 40.3896 11.7701 40.2759 11.5547C40.1623 11.3369 40.0025 11.1652 39.7965 11.0398C39.5929 10.9143 39.3538 10.8516 39.0792 10.8516C38.7809 10.8516 38.5205 10.925 38.2979 11.0717C38.0778 11.2161 37.9073 11.4055 37.7866 11.6399C37.6682 11.8719 37.609 12.1241 37.609 12.3963V13.0178C37.609 13.3823 37.6729 13.6925 37.8008 13.9482C37.931 14.2038 38.1121 14.3991 38.3441 14.5341C38.5761 14.6667 38.8472 14.733 39.1573 14.733C39.3585 14.733 39.542 14.7045 39.7077 14.6477C39.8735 14.5885 40.0167 14.5009 40.1374 14.3849C40.2582 14.2689 40.3505 14.1257 40.4144 13.9553L41.4194 14.1364C41.3389 14.4323 41.1945 14.6915 40.9862 14.9141C40.7802 15.1342 40.521 15.3059 40.2085 15.429C39.8983 15.5497 39.5444 15.6101 39.1467 15.6101ZM44.9519 17.6591C44.5186 17.6591 44.1458 17.6023 43.8333 17.4886C43.5231 17.375 43.2698 17.2247 43.0733 17.0376C42.8768 16.8506 42.7301 16.6458 42.633 16.4233L43.5456 16.0469C43.6096 16.151 43.6948 16.2611 43.8013 16.3771C43.9102 16.4955 44.057 16.5961 44.2417 16.679C44.4287 16.7618 44.669 16.8033 44.9625 16.8033C45.365 16.8033 45.6976 16.705 45.9604 16.5085C46.2232 16.3144 46.3546 16.0043 46.3546 15.5781V14.5057H46.2871C46.2232 14.6217 46.1309 14.7507 46.0101 14.8928C45.8917 15.0348 45.7284 15.1579 45.5201 15.2621C45.3117 15.3662 45.0407 15.4183 44.7069 15.4183C44.276 15.4183 43.8877 15.3177 43.5421 15.1165C43.1988 14.9129 42.9266 14.6134 42.7253 14.218C42.5265 13.8203 42.427 13.3314 42.427 12.7514C42.427 12.1714 42.5253 11.6742 42.7218 11.2599C42.9206 10.8456 43.1929 10.5284 43.5385 10.3082C43.8842 10.0857 44.276 9.97443 44.714 9.97443C45.0525 9.97443 45.3259 10.0312 45.5343 10.1449C45.7426 10.2562 45.9048 10.3864 46.0208 10.5355C46.1391 10.6847 46.2303 10.8161 46.2942 10.9297H46.3723V10.0455H47.4128V15.6207C47.4128 16.0895 47.3039 16.4742 47.0861 16.7749C46.8683 17.0755 46.5736 17.2981 46.2019 17.4425C45.8326 17.5869 45.4159 17.6591 44.9519 17.6591ZM44.9412 14.5376C45.2466 14.5376 45.5047 14.4666 45.7154 14.3246C45.9284 14.1802 46.0894 13.9742 46.1983 13.7067C46.3096 13.4368 46.3652 13.1136 46.3652 12.7372C46.3652 12.3703 46.3108 12.0471 46.2019 11.7678C46.093 11.4884 45.9332 11.2706 45.7225 11.1143C45.5118 10.9557 45.2514 10.8764 44.9412 10.8764C44.6216 10.8764 44.3553 10.9593 44.1422 11.125C43.9292 11.2884 43.7682 11.5109 43.6593 11.7926C43.5527 12.0743 43.4995 12.3892 43.4995 12.7372C43.4995 13.0947 43.5539 13.4084 43.6628 13.6783C43.7717 13.9482 43.9327 14.1589 44.1458 14.3104C44.3612 14.4619 44.6264 14.5376 44.9412 14.5376ZM48.8368 15.5V10.0455H49.8631V10.9119H49.9199C50.0194 10.6184 50.1945 10.3875 50.4455 10.2195C50.6988 10.049 50.9853 9.96378 51.3049 9.96378C51.3712 9.96378 51.4493 9.96615 51.5392 9.97088C51.6316 9.97562 51.7038 9.98153 51.7559 9.98864V11.0043C51.7132 10.9924 51.6375 10.9794 51.5286 10.9652C51.4197 10.9486 51.3108 10.9403 51.2019 10.9403C50.9509 10.9403 50.7272 10.9936 50.5307 11.1001C50.3366 11.2043 50.1827 11.3499 50.0691 11.5369C49.9554 11.7216 49.8986 11.9323 49.8986 12.169V15.5H48.8368ZM54.2132 15.6207C53.8676 15.6207 53.5551 15.5568 53.2757 15.429C52.9964 15.2988 52.775 15.1106 52.6117 14.8643C52.4507 14.6181 52.3702 14.3163 52.3702 13.9588C52.3702 13.651 52.4294 13.3977 52.5478 13.1989C52.6661 13 52.8259 12.8426 53.0272 12.7266C53.2284 12.6106 53.4533 12.523 53.7019 12.4638C53.9505 12.4046 54.2038 12.3596 54.4618 12.3288C54.7885 12.291 55.0537 12.2602 55.2573 12.2365C55.4609 12.2105 55.6088 12.169 55.7012 12.1122C55.7935 12.0554 55.8397 11.9631 55.8397 11.8352V11.8104C55.8397 11.5002 55.7521 11.2599 55.5769 11.0895C55.4041 10.919 55.146 10.8338 54.8027 10.8338C54.4453 10.8338 54.1635 10.9131 53.9576 11.0717C53.754 11.228 53.6131 11.402 53.535 11.5938L52.5371 11.3665C52.6555 11.035 52.8283 10.7675 53.0556 10.5639C53.2852 10.358 53.5492 10.2088 53.8475 10.1165C54.1458 10.0218 54.4595 9.97443 54.7885 9.97443C55.0063 9.97443 55.2372 10.0005 55.481 10.0526C55.7272 10.1023 55.9569 10.1946 56.1699 10.3295C56.3854 10.4645 56.5617 10.6574 56.699 10.9084C56.8364 11.157 56.905 11.4801 56.905 11.8778V15.5H55.8681V14.7543H55.8255C55.7568 14.8916 55.6538 15.0265 55.5165 15.1591C55.3792 15.2917 55.2028 15.4018 54.9874 15.4893C54.772 15.5769 54.5139 15.6207 54.2132 15.6207ZM54.4441 14.7685C54.7376 14.7685 54.9886 14.7105 55.1969 14.5945C55.4076 14.4785 55.5674 14.3269 55.6763 14.1399C55.7876 13.9505 55.8432 13.7481 55.8432 13.5327V12.8295C55.8053 12.8674 55.7319 12.9029 55.623 12.9361C55.5165 12.9669 55.3946 12.9941 55.2573 13.0178C55.12 13.0391 54.9862 13.0592 54.856 13.0781C54.7258 13.0947 54.6169 13.1089 54.5293 13.1207C54.3233 13.1468 54.1351 13.1906 53.9647 13.2521C53.7966 13.3137 53.6616 13.4025 53.5598 13.5185C53.4604 13.6321 53.4107 13.7836 53.4107 13.973C53.4107 14.2358 53.5078 14.4347 53.7019 14.5696C53.896 14.7022 54.1434 14.7685 54.4441 14.7685ZM58.3192 15.5V10.0455H59.3384V10.9332H59.4059C59.5195 10.6326 59.7054 10.3982 59.9634 10.2301C60.2215 10.0597 60.5304 9.97443 60.8903 9.97443C61.2549 9.97443 61.5603 10.0597 61.8065 10.2301C62.055 10.4006 62.2385 10.6349 62.3569 10.9332H62.4137C62.5439 10.642 62.7511 10.41 63.0352 10.2372C63.3192 10.062 63.6578 9.97443 64.0508 9.97443C64.5456 9.97443 64.9492 10.1295 65.2617 10.4396C65.5766 10.7498 65.734 11.2173 65.734 11.8423V15.5H64.6722V11.9418C64.6722 11.5724 64.5716 11.3049 64.3704 11.1392C64.1692 10.9735 63.9289 10.8906 63.6495 10.8906C63.3039 10.8906 63.0352 10.9972 62.8434 11.2102C62.6516 11.4209 62.5558 11.692 62.5558 12.0234V15.5H61.4975V11.8743C61.4975 11.5784 61.4052 11.3404 61.2205 11.1605C61.0359 10.9806 60.7956 10.8906 60.4996 10.8906C60.2984 10.8906 60.1126 10.9439 59.9421 11.0504C59.774 11.1546 59.6379 11.3002 59.5337 11.4872C59.4319 11.6742 59.381 11.8909 59.381 12.1371V15.5H58.3192Z" fill="white"/>
<rect x="0.5" y="0.5" width="70" height="22" stroke="white"/>
</svg>
