<svg width="66" height="23" viewBox="0 0 66 23" fill="none" xmlns="http://www.w3.org/2000/svg">
<path d="M17.8067 7.67427C17.3544 7.87469 16.8685 8.0101 16.3577 8.07131C16.8847 7.75595 17.279 7.25961 17.467 6.6749C16.9719 6.96901 16.4299 7.17604 15.8648 7.28698C15.4847 6.8812 14.9814 6.61224 14.4328 6.52186C13.8842 6.43148 13.3212 6.52474 12.831 6.78716C12.3409 7.04957 11.9511 7.46647 11.7222 7.97311C11.4933 8.47975 11.438 9.0478 11.565 9.58906C10.5617 9.53868 9.58016 9.2779 8.68413 8.82364C7.7881 8.36937 6.99761 7.73177 6.36394 6.95223C6.14728 7.32598 6.02269 7.75931 6.02269 8.22081C6.02245 8.63627 6.12476 9.04536 6.32054 9.41179C6.51633 9.77822 6.79953 10.0907 7.14503 10.3214C6.74434 10.3086 6.3525 10.2004 6.00211 10.0056V10.0381C6.00207 10.6208 6.20363 11.1856 6.57258 11.6366C6.94154 12.0876 7.45517 12.397 8.02632 12.5124C7.65462 12.613 7.26492 12.6278 6.88665 12.5558C7.0478 13.0571 7.36169 13.4956 7.78439 13.8097C8.20709 14.1238 8.71744 14.2979 9.24398 14.3075C8.35014 15.0092 7.24626 15.3898 6.1099 15.3881C5.90861 15.3882 5.70748 15.3764 5.50757 15.3529C6.66103 16.0946 8.00375 16.4882 9.37507 16.4866C14.0172 16.4866 16.5549 12.6419 16.5549 9.3074C16.5549 9.19906 16.5522 9.08965 16.5473 8.98131C17.0409 8.62434 17.467 8.1823 17.8056 7.6759L17.8067 7.67427V7.67427Z" fill="white"/>
<path d="M22.4403 9.17188V8.22727H28.0689V9.17188H25.7997V15.5H24.706V9.17188H22.4403ZM29.785 15.5L28.1799 10.0455H29.2772L30.3461 14.0511H30.3993L31.4718 10.0455H32.5691L33.6344 14.0334H33.6877L34.7495 10.0455H35.8468L34.2452 15.5H33.1621L32.0542 11.5618H31.9725L30.8645 15.5H29.785ZM36.8544 15.5V10.0455H37.9162V15.5H36.8544ZM37.3906 9.20384C37.206 9.20384 37.0473 9.14228 36.9148 9.01918C36.7846 8.8937 36.7195 8.74455 36.7195 8.57173C36.7195 8.39654 36.7846 8.2474 36.9148 8.12429C37.0473 7.99882 37.206 7.93608 37.3906 7.93608C37.5753 7.93608 37.7327 7.99882 37.8629 8.12429C37.9955 8.2474 38.0618 8.39654 38.0618 8.57173C38.0618 8.74455 37.9955 8.8937 37.8629 9.01918C37.7327 9.14228 37.5753 9.20384 37.3906 9.20384ZM41.8908 10.0455V10.8977H38.9114V10.0455H41.8908ZM39.7104 8.73864H40.7722V13.8984C40.7722 14.1044 40.803 14.2595 40.8645 14.3636C40.9261 14.4654 41.0054 14.5353 41.1025 14.5732C41.2019 14.6087 41.3096 14.6264 41.4256 14.6264C41.5108 14.6264 41.5854 14.6205 41.6493 14.6087C41.7132 14.5968 41.763 14.5874 41.7985 14.5803L41.9902 15.4574C41.9287 15.4811 41.8411 15.5047 41.7275 15.5284C41.6138 15.5545 41.4718 15.5687 41.3013 15.571C41.022 15.5758 40.7615 15.526 40.5201 15.4219C40.2786 15.3177 40.0833 15.1567 39.9341 14.9389C39.785 14.7211 39.7104 14.4477 39.7104 14.1186V8.73864ZM45.6115 10.0455V10.8977H42.6321V10.0455H45.6115ZM43.4311 8.73864H44.4929V13.8984C44.4929 14.1044 44.5237 14.2595 44.5852 14.3636C44.6468 14.4654 44.7261 14.5353 44.8232 14.5732C44.9226 14.6087 45.0303 14.6264 45.1463 14.6264C45.2315 14.6264 45.3061 14.6205 45.37 14.6087C45.4339 14.5968 45.4837 14.5874 45.5192 14.5803L45.7109 15.4574C45.6494 15.4811 45.5618 15.5047 45.4482 15.5284C45.3345 15.5545 45.1925 15.5687 45.022 15.571C44.7427 15.5758 44.4822 15.526 44.2408 15.4219C43.9993 15.3177 43.804 15.1567 43.6548 14.9389C43.5057 14.7211 43.4311 14.4477 43.4311 14.1186V8.73864ZM49.0783 15.6101C48.5409 15.6101 48.0781 15.4953 47.6898 15.2656C47.3039 15.0336 47.0056 14.7081 46.7949 14.2891C46.5866 13.8677 46.4824 13.3741 46.4824 12.8082C46.4824 12.2495 46.5866 11.7571 46.7949 11.331C47.0056 10.9048 47.2992 10.5722 47.6756 10.3331C48.0544 10.094 48.4971 9.97443 49.0037 9.97443C49.3115 9.97443 49.6098 10.0253 49.8986 10.1271C50.1874 10.2289 50.4467 10.3887 50.6763 10.6065C50.906 10.8243 51.0871 11.1072 51.2196 11.4553C51.3522 11.8009 51.4185 12.2211 51.4185 12.7159V13.0923H47.0826V12.2969H50.378C50.378 12.0175 50.3212 11.7701 50.2076 11.5547C50.0939 11.3369 49.9341 11.1652 49.7282 11.0398C49.5246 10.9143 49.2855 10.8516 49.0108 10.8516C48.7125 10.8516 48.4521 10.925 48.2296 11.0717C48.0094 11.2161 47.839 11.4055 47.7182 11.6399C47.5998 11.8719 47.5407 12.1241 47.5407 12.3963V13.0178C47.5407 13.3823 47.6046 13.6925 47.7324 13.9482C47.8626 14.2038 48.0437 14.3991 48.2757 14.5341C48.5078 14.6667 48.7788 14.733 49.089 14.733C49.2902 14.733 49.4737 14.7045 49.6394 14.6477C49.8051 14.5885 49.9483 14.5009 50.0691 14.3849C50.1898 14.2689 50.2821 14.1257 50.3461 13.9553L51.351 14.1364C51.2705 14.4323 51.1261 14.6915 50.9178 14.9141C50.7118 15.1342 50.4526 15.3059 50.1401 15.429C49.83 15.5497 49.476 15.6101 49.0783 15.6101ZM52.5966 15.5V10.0455H53.6229V10.9119H53.6797C53.7791 10.6184 53.9543 10.3875 54.2053 10.2195C54.4586 10.049 54.745 9.96378 55.0646 9.96378C55.1309 9.96378 55.209 9.96615 55.299 9.97088C55.3913 9.97562 55.4635 9.98153 55.5156 9.98864V11.0043C55.473 10.9924 55.3973 10.9794 55.2884 10.9652C55.1795 10.9486 55.0705 10.9403 54.9616 10.9403C54.7107 10.9403 54.487 10.9936 54.2905 11.1001C54.0964 11.2043 53.9425 11.3499 53.8288 11.5369C53.7152 11.7216 53.6584 11.9323 53.6584 12.169V15.5H52.5966Z" fill="white"/>
<rect x="0.5" y="0.5" width="65" height="22" stroke="white"/>
</svg>
