<svg width="60" height="60" viewBox="0 0 60 60" fill="none" xmlns="http://www.w3.org/2000/svg">
<circle cx="30" cy="30" r="30" fill="#6D24A5"/>
<path d="M25.1673 41C34.979 41 40.3464 32.9187 40.3464 25.9228C40.3464 25.6967 40.3464 25.4673 40.3366 25.2411C41.3816 24.4892 42.2835 23.5583 43 22.4919C42.0239 22.9197 40.9895 23.2017 39.9304 23.3286C41.046 22.6658 41.8816 21.6228 42.2817 20.3936C41.2336 21.0109 40.0864 21.4442 38.8904 21.6746C38.0863 20.8233 37.0223 20.2594 35.8631 20.0702C34.704 19.8809 33.5144 20.0769 32.4787 20.6278C31.4429 21.1786 30.6188 22.0536 30.134 23.1171C29.6492 24.1807 29.5307 25.3735 29.7969 26.5108C27.6758 26.4051 25.6008 25.8573 23.7064 24.9031C21.8121 23.9489 20.1406 22.6096 18.8005 20.9719C18.1202 22.1399 17.9126 23.5215 18.2198 24.8361C18.527 26.1508 19.3261 27.2999 20.4547 28.0502C19.609 28.0216 18.7818 27.7958 18.04 27.3911V27.4638C18.0415 28.6874 18.4679 29.8729 19.2472 30.82C20.0265 31.7671 21.1108 32.4177 22.317 32.6618C21.8592 32.7872 21.3862 32.8497 20.9114 32.8476C20.5766 32.8486 20.2425 32.8178 19.9136 32.7555C20.2545 33.8088 20.9183 34.7297 21.812 35.3892C22.7057 36.0488 23.7846 36.4139 24.8975 36.4336C23.0069 37.9096 20.6715 38.7102 18.2675 38.7063C17.8439 38.7081 17.4206 38.6838 17 38.6336C19.44 40.1799 22.2736 41.0009 25.1673 41V41Z" fill="white"/>
</svg>
