<svg width="60" height="60" viewBox="0 0 60 60" fill="none" xmlns="http://www.w3.org/2000/svg">
<circle cx="30" cy="30" r="30" fill="#6D24A5"/>
<path fill-rule="evenodd" clip-rule="evenodd" d="M41.45 23.948C41.616 23.402 41.45 23 40.655 23H38.03C37.362 23 37.054 23.347 36.887 23.73C36.887 23.73 35.552 26.926 33.661 29.002C33.049 29.604 32.771 29.795 32.437 29.795C32.27 29.795 32.019 29.604 32.019 29.057V23.948C32.019 23.292 31.835 23 31.279 23H27.151C26.734 23 26.483 23.304 26.483 23.593C26.483 24.214 27.429 24.358 27.526 26.106V29.904C27.526 30.737 27.373 30.888 27.039 30.888C26.149 30.888 23.984 27.677 22.699 24.003C22.45 23.288 22.198 23 21.527 23H18.9C18.15 23 18 23.347 18 23.73C18 24.412 18.89 27.8 22.145 32.281C24.315 35.341 27.37 37 30.153 37C31.822 37 32.028 36.632 32.028 35.997V33.684C32.028 32.947 32.186 32.8 32.715 32.8C33.105 32.8 33.772 32.992 35.33 34.467C37.11 36.216 37.403 37 38.405 37H41.03C41.78 37 42.156 36.632 41.94 35.904C41.702 35.18 40.852 34.129 39.725 32.882C39.113 32.172 38.195 31.407 37.916 31.024C37.527 30.533 37.638 30.314 37.916 29.877C37.916 29.877 41.116 25.451 41.449 23.948H41.45Z" fill="white"/>
</svg>
