<?xml version="1.0" standalone="no"?>
<!DOCTYPE svg PUBLIC "-//W3C//DTD SVG 20010904//EN"
 "http://www.w3.org/TR/2001/REC-SVG-20010904/DTD/svg10.dtd">
<svg version="1.0" xmlns="http://www.w3.org/2000/svg"
 width="800.000000pt" height="800.000000pt" viewBox="0 0 800.000000 800.000000"
 preserveAspectRatio="xMidYMid meet">
<metadata>
Created by potrace 1.11, written by Peter Selinger 2001-2013
</metadata>
<g transform="translate(0.000000,800.000000) scale(0.100000,-0.100000)"
fill="#000000" stroke="none">
<path d="M1352 7293 c-16 -27 -61 -100 -100 -163 -38 -63 -159 -259 -267 -435
-109 -176 -207 -336 -217 -355 -11 -19 -29 -47 -39 -62 -11 -14 -19 -31 -19
-37 0 -6 -4 -11 -8 -11 -8 0 -32 -43 -32 -55 0 -3 1149 -6 2554 -7 l2554 -3
-69 -108 c-38 -60 -69 -111 -69 -113 0 -3 -5 -10 -10 -17 -6 -7 -23 -32 -39
-57 -15 -25 -52 -83 -82 -130 -30 -47 -58 -94 -64 -103 -5 -9 -59 -94 -120
-189 -60 -95 -112 -177 -114 -182 -2 -6 -22 -38 -45 -72 -23 -35 -63 -98 -90
-141 -27 -43 -68 -108 -92 -145 -24 -36 -44 -71 -44 -76 0 -6 -3 -12 -7 -14
-5 -1 -22 -25 -39 -53 -45 -72 -262 -417 -274 -435 -14 -21 -255 -404 -331
-525 -34 -55 -81 -129 -104 -165 -61 -96 -139 -219 -150 -239 -5 -9 -28 -46
-51 -82 -23 -35 -68 -106 -100 -158 -32 -51 -75 -118 -95 -150 -114 -177 -380
-605 -382 -614 -1 -6 16 -12 38 -13 37 -1 207 -10 370 -19 39 -2 117 -6 175
-9 144 -8 268 -15 375 -21 50 -3 141 -7 202 -10 62 -3 116 -5 120 -6 30 -5 51
6 73 39 14 20 27 41 28 45 2 4 46 74 97 155 179 282 296 467 308 487 7 11 29
46 50 78 20 32 37 62 37 66 0 5 7 15 16 22 9 7 20 22 25 34 5 11 19 36 32 56
89 144 123 196 134 207 7 7 13 18 13 23 0 5 5 15 11 22 6 7 64 98 129 202 66
105 130 205 142 224 12 19 27 42 33 52 5 10 42 68 80 129 39 61 77 121 85 135
8 13 47 74 85 135 39 61 81 128 95 150 14 22 83 131 153 243 71 111 134 211
140 222 7 11 29 45 50 77 20 31 37 60 37 63 0 3 5 11 10 18 6 7 64 98 130 202
66 105 133 210 149 235 76 118 121 191 121 195 0 3 15 26 34 52 18 27 58 88
87 136 30 49 61 99 69 112 33 52 157 247 180 285 14 22 133 211 265 420 253
400 257 407 292 464 l22 36 -3258 0 -3259 0 -30 -47z"/>
<path d="M3349 5573 c-9 -10 -49 -70 -89 -133 -41 -63 -133 -205 -205 -315
-72 -110 -158 -240 -190 -290 -32 -49 -104 -160 -160 -245 -56 -85 -135 -207
-177 -270 -41 -63 -111 -169 -154 -235 -43 -66 -81 -124 -84 -130 -3 -5 -45
-71 -94 -145 -49 -74 -118 -180 -154 -235 -96 -147 -269 -412 -311 -475 -20
-30 -39 -56 -43 -58 -5 -2 -8 -9 -8 -16 0 -6 -7 -21 -15 -31 -9 -11 -48 -69
-87 -130 -165 -254 -268 -411 -278 -422 -5 -7 -10 -14 -10 -17 0 -3 -20 -34
-45 -69 -25 -36 -45 -68 -45 -71 0 -4 -5 -12 -11 -19 -13 -15 -235 -352 -243
-369 -4 -10 -276 -424 -326 -498 -10 -15 -131 -199 -342 -523 -57 -87 -113
-173 -126 -192 l-22 -35 3325 0 c2300 0 3325 3 3325 10 0 6 5 16 11 23 5 7 32
46 58 87 85 134 275 432 362 567 46 73 94 149 107 170 12 21 58 94 102 162 44
69 78 126 76 128 -2 2 -1171 3 -2600 3 -1523 0 -2596 4 -2596 9 0 5 22 42 49
83 46 68 215 327 391 597 209 320 259 397 269 408 6 7 11 15 11 18 0 6 52 88
61 95 3 3 33 48 66 100 72 113 297 458 315 482 7 10 67 101 133 203 110 170
370 569 394 605 6 8 52 79 103 157 94 145 354 542 530 810 53 82 95 149 94
150 -2 2 -108 8 -326 18 -226 11 -452 22 -575 30 -44 2 -136 7 -205 10 -69 3
-152 8 -186 11 -50 4 -63 1 -75 -13z"/>
</g>
</svg>
