<svg id="Layer_1" data-name="Layer 1" xmlns="http://www.w3.org/2000/svg" viewBox="0 0 2000 2000"><defs><style>.cls-1{fill:#3b115b;}</style></defs><path class="cls-1" d="M1010.75,819.27C922,819.27,922,894.08,922,952.44H892.64v6.27H922v9.44H892.64v6.28H922v169.28h54.34V974.43h37v-6.27h-37v-9.44h37v-6.27h-37v-69c0-30.75,0-57.86,25.35-57.86,9.92,0,19.2,4.89,19.2,15.56,0,3.14-3.51,19.08-3.51,23.09,0,15.69,8,22.85,23.6,22.85,13.8,0,25.35-10.79,25.35-24.6C1066.35,831.7,1037.48,819.27,1010.75,819.27Z"/><path class="cls-1" d="M756.33,946.26c-61.5,0-108.75,46.79-108.75,101.6,0,55.27,47.25,102.06,108.75,102.06s108.74-46.79,108.74-102.06C865.07,993.05,817.83,946.26,756.33,946.26Zm0,197.42c-46.35,0-48.58-47.69-48.58-95.82,0-47.68,2.23-95.36,48.58-95.36s48.57,47.68,48.57,95.36C804.9,1096,802.68,1143.68,756.33,1143.68Z"/><path class="cls-1" d="M1240.43,952.44v121.24a78,78,0,0,1-7.16,33.51c-1,2-2,4-3.13,5.9-8.16,12.8-20.46,21.21-35.65,21.21-22.71,0-30.37-18.2-30.37-40.54V952.44h-54.35v135c0,43.3,22.72,60.25,64.14,60.25,23.59,0,49.45-11,62-31.25a54.77,54.77,0,0,0,4.52-8.91h.88v36.14h53.46V952.44Z"/><path class="cls-1" d="M1542.94,1082.18c-8.91,27.18-17.82,55.26-55.25,55.26h-54.37L1541.16,952.5H1382.07l-6.69,53h4.9c13.82-31.2,25-46.79,57-46.79H1477L1368.7,1143.68h174.24l4.9-61.5Z"/><path class="cls-1" d="M556,1028.26l-16.42-5.6v-68.6c25.27,5.82,34.24,27.24,44.48,51.91h5.8V951.6h-6.24c-.89,2.68-2.23,5.8-8.47,5.8-5.84,0-18.83-7.46-35.57-10.17V915.45H533.3v31c-1.76-.14-3.56-.22-5.38-.22-1.37,0-2.72,0-4.06.09v-30.9h-6.27v31.4c-37.58,4.21-62.76,31.22-62.76,63.13,0,31.64,24.07,45.46,40.56,51.7l22.2,8.22v73.17c-34.14-4.43-46.49-33.27-59.19-64h-6.24v64.62h6.24c1.79-4.46,3.12-6.24,8-6.24,8.95,0,31.31,8.73,51.17,11.58v31.71h6.27v-31c1.69.12,3.34.2,4.95.2s3-.05,4.49-.13v30.94h6.28v-31.45c34.95-4.09,65.43-27.94,65.43-63.53C605,1057.67,588.08,1039.4,556,1028.26ZM524.8,952.5a73.44,73.44,0,0,1,8.5.49v67.53l-9.44-3.22V952.51Zm-39.22,30.75c0-18,15.08-28.07,32-30.28v62.18C487.8,1004.92,485.58,991.66,485.58,983.25ZM527,1143.68c-1.07,0-2.12,0-3.16-.08v-71.37l7.62,2.82,1.82.68v67.8C530.85,1143.68,528.68,1143.68,527,1143.68Zm12.56-.84v-64.57c24.17,10.51,27.1,21,27.1,31.1C566.68,1133.74,551.85,1140.79,539.58,1142.84Z"/><path class="cls-1" d="M1041.76,1098.08a24.44,24.44,0,1,0,24.43,24.44A24.53,24.53,0,0,0,1041.76,1098.08Z"/></svg>